<?xml version="1.0" encoding="utf-8"?>
<!-- Generator: Adobe Illustrator 15.0.0, SVG Export Plug-In . SVG Version: 6.00 Build 0)  -->
<!DOCTYPE svg PUBLIC "-//W3C//DTD SVG 1.1//EN" "http://www.w3.org/Graphics/SVG/1.1/DTD/svg11.dtd">
<svg version="1.1" id="Layer_1" xmlns="http://www.w3.org/2000/svg" xmlns:xlink="http://www.w3.org/1999/xlink" x="0px" y="0px"
	 width="96.975px" height="96.973px" viewBox="0 0 96.975 96.973" enable-background="new 0 0 96.975 96.973" xml:space="preserve">
<circle fill="#FFF8A3" cx="48.362" cy="48.363" r="48.363"/>
<g>
	<g>
		<g>
			<path fill="#008A00" d="M48.364,0.003c7.67,0,15.232,1.823,22.061,5.321l-0.539,1.05C63.227,2.962,55.85,1.183,48.364,1.182
				V0.003z"/>
			<path fill="none" stroke="#008A00" stroke-width="0.25" d="M48.364,0.003c7.67,0,15.232,1.823,22.061,5.321l-0.539,1.05
				C63.227,2.962,55.85,1.183,48.364,1.182V0.003z"/>
			<path fill="#008A00" d="M72.545,6.482c6.645,3.834,12.277,9.195,16.441,15.639l-0.99,0.641
				c-4.062-6.285-9.561-11.517-16.041-15.258L72.545,6.482z"/>
			<path fill="none" stroke="#008A00" stroke-width="0.25" d="M72.545,6.482c6.645,3.834,12.277,9.195,16.441,15.639l-0.99,0.641
				c-4.062-6.285-9.561-11.517-16.041-15.258L72.545,6.482z"/>
			<path fill="#008A00" d="M90.246,24.183c3.836,6.644,6.037,14.103,6.42,21.766l-1.18,0.059c-0.373-7.475-2.52-14.752-6.262-21.232
				L90.246,24.183z"/>
			<path fill="none" stroke="#008A00" stroke-width="0.25" d="M90.246,24.183c3.836,6.644,6.037,14.103,6.42,21.766l-1.18,0.059
				c-0.373-7.475-2.52-14.752-6.262-21.232L90.246,24.183z"/>
			<path fill="#008A00" d="M96.727,48.365c0,7.67-1.824,15.23-5.324,22.06l-1.049-0.539c3.414-6.66,5.191-14.035,5.191-21.521
				H96.727z"/>
			<path fill="none" stroke="#008A00" stroke-width="0.25" d="M96.727,48.365c0,7.67-1.824,15.23-5.324,22.06l-1.049-0.539
				c3.414-6.66,5.191-14.035,5.191-21.521H96.727z"/>
			<path fill="#008A00" d="M90.246,72.546c-3.834,6.644-9.193,12.277-15.639,16.439l-0.639-0.99
				c6.283-4.061,11.516-9.558,15.256-16.039L90.246,72.546z"/>
			<path fill="none" stroke="#008A00" stroke-width="0.25" d="M90.246,72.546c-3.834,6.644-9.193,12.277-15.639,16.439l-0.639-0.99
				c6.283-4.061,11.516-9.558,15.256-16.039L90.246,72.546z"/>
			<path fill="#008A00" d="M72.545,90.247c-6.643,3.835-14.104,6.035-21.764,6.421l-0.059-1.179
				c7.475-0.376,14.752-2.521,21.23-6.264L72.545,90.247z"/>
			<path fill="none" stroke="#008A00" stroke-width="0.25" d="M72.545,90.247c-6.643,3.835-14.104,6.035-21.764,6.421l-0.059-1.179
				c7.475-0.376,14.752-2.521,21.23-6.264L72.545,90.247z"/>
			<path fill="#008A00" d="M48.364,96.726c-7.67,0.001-15.23-1.823-22.058-5.322l0.537-1.051c6.66,3.414,14.037,5.193,21.521,5.194
				V96.726L48.364,96.726z"/>
			<path fill="none" stroke="#008A00" stroke-width="0.25" d="M48.364,96.726c-7.67,0.001-15.23-1.823-22.058-5.322l0.537-1.051
				c6.66,3.414,14.037,5.193,21.521,5.194V96.726L48.364,96.726z"/>
			<path fill="#008A00" d="M24.184,90.247c-6.644-3.835-12.278-9.194-16.441-15.639l0.99-0.641
				c4.062,6.286,9.56,11.517,16.041,15.258L24.184,90.247z"/>
			<path fill="none" stroke="#008A00" stroke-width="0.25" d="M24.184,90.247c-6.644-3.835-12.278-9.194-16.441-15.639l0.99-0.641
				c4.062,6.286,9.56,11.517,16.041,15.258L24.184,90.247z"/>
			<path fill="#008A00" d="M6.483,72.547c-3.836-6.646-6.037-14.104-6.42-21.766l1.178-0.06c0.374,7.476,2.52,14.754,6.263,21.232
				L6.483,72.547z"/>
			<path fill="none" stroke="#008A00" stroke-width="0.25" d="M6.483,72.547c-3.836-6.646-6.037-14.104-6.42-21.766l1.178-0.06
				c0.374,7.476,2.52,14.754,6.263,21.232L6.483,72.547z"/>
			<path fill="#008A00" d="M0.001,48.365C0,40.694,1.825,33.134,5.324,26.307l1.05,0.538c-3.412,6.659-5.193,14.036-5.193,21.52
				H0.001z"/>
			<path fill="none" stroke="#008A00" stroke-width="0.25" d="M0.001,48.365C0,40.694,1.825,33.134,5.324,26.307l1.05,0.538
				c-3.412,6.659-5.193,14.036-5.193,21.52H0.001z"/>
			<path fill="#008A00" d="M6.483,24.184c3.834-6.645,9.194-12.278,15.637-16.441l0.641,0.99
				c-6.284,4.062-11.516,9.559-15.257,16.041L6.483,24.184z"/>
			<path fill="none" stroke="#008A00" stroke-width="0.25" d="M6.483,24.184c3.834-6.645,9.194-12.278,15.637-16.441l0.641,0.99
				c-6.284,4.062-11.516,9.559-15.257,16.041L6.483,24.184z"/>
			<path fill="#008A00" d="M24.184,6.482c6.643-3.836,14.102-6.037,21.762-6.419l0.062,1.178
				c-7.476,0.374-14.753,2.521-21.233,6.262L24.184,6.482z"/>
			<path fill="none" stroke="#008A00" stroke-width="0.25" d="M24.184,6.482c6.643-3.836,14.102-6.037,21.762-6.419l0.062,1.178
				c-7.476,0.374-14.753,2.521-21.233,6.262L24.184,6.482z"/>
			<path opacity="0.6706" fill="#008A00" enable-background="new    " d="M50.227,1.219c0.619,0.022,1.236,0.061,1.857,0.109
				C49.604,32.686,48.987,32.649,50.227,1.219z"/>
			<path fill="none" stroke="#000000" stroke-width="0.25" d="M50.227,1.219c0.619,0.022,1.236,0.061,1.857,0.109
				C49.604,32.686,48.987,32.649,50.227,1.219z"/>
			<path opacity="0.6706" fill="#008A00" enable-background="new    " d="M59.434,2.498c0.604,0.146,1.203,0.303,1.801,0.473
				c-8.58,30.262-4.475,32.095,12.312,5.495c0.525,0.332,1.045,0.673,1.557,1.023C57.278,35.407,52.053,33.075,59.434,2.498z"/>
			<path fill="none" stroke="#000000" stroke-width="0.25" d="M59.434,2.498c0.604,0.146,1.203,0.303,1.801,0.473
				c-8.58,30.262-4.475,32.095,12.312,5.495c0.525,0.332,1.045,0.673,1.557,1.023C57.278,35.407,52.053,33.075,59.434,2.498z"/>
			<path opacity="0.6706" fill="#008A00" enable-background="new    " d="M52.086,1.328c0.617,0.05,1.234,0.109,1.852,0.184
				c-3.713,31.234,8.348,39.532,36.188,24.892c0.287,0.548,0.566,1.104,0.832,1.664C62.563,41.599,49.604,32.686,52.086,1.328z"/>
			<path fill="none" stroke="#000000" stroke-width="0.25" d="M52.086,1.328c0.617,0.05,1.234,0.109,1.852,0.184
				c-3.713,31.234,8.348,39.532,36.188,24.892c0.287,0.548,0.566,1.104,0.832,1.664C62.563,41.599,49.604,32.686,52.086,1.328z"/>
			<path opacity="0.6706" fill="#008A00" enable-background="new    " d="M53.936,1.513c0.619,0.074,1.23,0.158,1.846,0.255
				c-4.945,31.063,8.297,47.217,39.729,48.458c-0.023,0.619-0.062,1.24-0.109,1.859C64.043,49.605,50.223,32.746,53.936,1.513z"/>
			<path fill="none" stroke="#000000" stroke-width="0.25" d="M53.936,1.513c0.619,0.074,1.23,0.158,1.846,0.255
				c-4.945,31.063,8.297,47.217,39.729,48.458c-0.023,0.619-0.062,1.24-0.109,1.859C64.043,49.605,50.223,32.746,53.936,1.513z"/>
			<path opacity="0.6706" fill="#008A00" enable-background="new    " d="M55.781,1.768c0.613,0.099,1.227,0.209,1.834,0.33
				c-6.168,30.845,4.049,54.662,30.648,71.453c-0.332,0.522-0.672,1.043-1.025,1.555C61.323,57.279,50.836,32.831,55.781,1.768z"/>
			<path fill="none" stroke="#000000" stroke-width="0.25" d="M55.781,1.768c0.613,0.099,1.227,0.209,1.834,0.33
				c-6.168,30.845,4.049,54.662,30.648,71.453c-0.332,0.522-0.672,1.043-1.025,1.555C61.323,57.279,50.836,32.831,55.781,1.768z"/>
			<path opacity="0.6706" fill="#008A00" enable-background="new    " d="M57.615,2.097c0.607,0.122,1.215,0.256,1.818,0.401
				c-7.381,30.577-3.75,59.786,10.891,87.625c-0.549,0.289-1.104,0.567-1.664,0.834C55.129,62.563,51.448,32.943,57.615,2.097z"/>
			<path fill="none" stroke="#000000" stroke-width="0.25" d="M57.615,2.097c0.607,0.122,1.215,0.256,1.818,0.401
				c-7.381,30.577-3.75,59.786,10.891,87.625c-0.549,0.289-1.104,0.567-1.664,0.834C55.129,62.563,51.448,32.943,57.615,2.097z"/>
			<path opacity="0.6706" fill="#008A00" enable-background="new    " d="M48.364,1.181c0.621,0,1.242,0.014,1.863,0.038
				c-1.24,31.43-2.484,62.86-3.725,94.291c-0.619-0.023-1.242-0.062-1.859-0.109C47.123,64.043,48.364,32.637,48.364,1.181z"/>
			<path fill="none" stroke="#000000" stroke-width="0.25" d="M48.364,1.181c0.621,0,1.242,0.014,1.863,0.038
				c-1.24,31.43-2.484,62.86-3.725,94.291c-0.619-0.023-1.242-0.062-1.859-0.109C47.123,64.043,48.364,32.637,48.364,1.181z"/>
			<path opacity="0.6706" fill="#008A00" enable-background="new    " d="M61.235,2.971c0.596,0.17,1.191,0.352,1.779,0.543
				c-9.768,29.899-23.046,58.148-39.836,84.75c-0.524-0.332-1.044-0.673-1.555-1.026C39.45,61.323,52.655,33.233,61.235,2.971z"/>
			<path fill="none" stroke="#000000" stroke-width="0.25" d="M61.235,2.971c0.596,0.17,1.191,0.352,1.779,0.543
				c-9.768,29.899-23.046,58.148-39.836,84.75c-0.524-0.332-1.044-0.673-1.555-1.026C39.45,61.323,52.655,33.233,61.235,2.971z"/>
			<path opacity="0.6706" fill="#008A00" enable-background="new    " d="M63.014,3.514c0.592,0.191,1.178,0.396,1.76,0.612
				C53.834,33.617,34.443,55.685,6.604,70.324c-0.289-0.549-0.567-1.104-0.834-1.666C34.166,55.13,53.248,33.414,63.014,3.514z"/>
			<path fill="none" stroke="#000000" stroke-width="0.25" d="M63.014,3.514c0.592,0.191,1.178,0.396,1.76,0.612
				C53.834,33.617,34.443,55.685,6.604,70.324c-0.289-0.549-0.567-1.104-0.834-1.666C34.166,55.13,53.248,33.414,63.014,3.514z"/>
			<path opacity="0.6706" fill="#008A00" enable-background="new    " d="M64.774,4.127c0.58,0.216,1.16,0.443,1.729,0.682
				C54.41,33.848,32.648,47.744,1.216,46.504c0.023-0.621,0.062-1.241,0.11-1.859C32.686,47.124,53.834,33.618,64.774,4.127z"/>
			<path fill="none" stroke="#000000" stroke-width="0.25" d="M64.774,4.127c0.58,0.216,1.16,0.443,1.729,0.682
				C54.41,33.848,32.648,47.744,1.216,46.504c0.023-0.621,0.062-1.241,0.11-1.859C32.686,47.124,53.834,33.618,64.774,4.127z"/>
			<path opacity="0.6706" fill="#008A00" enable-background="new    " d="M66.504,4.808c0.574,0.239,1.146,0.49,1.707,0.75
				C54.981,34.096,35.066,39.969,8.464,23.18c0.332-0.525,0.674-1.044,1.025-1.556C35.406,39.45,54.412,33.847,66.504,4.808z"/>
			<path fill="none" stroke="#000000" stroke-width="0.25" d="M66.504,4.808c0.574,0.239,1.146,0.49,1.707,0.75
				C54.981,34.096,35.066,39.969,8.464,23.18c0.332-0.525,0.674-1.044,1.025-1.556C35.406,39.45,54.412,33.847,66.504,4.808z"/>
			<path opacity="0.6706" fill="#008A00" enable-background="new    " d="M68.211,5.558c0.562,0.262,1.121,0.534,1.674,0.815
				c-14.348,27.993-28.839,28.071-43.48,0.229c0.55-0.29,1.104-0.567,1.665-0.833C41.6,34.166,54.979,34.096,68.211,5.558z"/>
			<path fill="none" stroke="#000000" stroke-width="0.25" d="M68.211,5.558c0.562,0.262,1.121,0.534,1.674,0.815
				c-14.348,27.993-28.839,28.071-43.48,0.229c0.55-0.29,1.104-0.567,1.665-0.833C41.6,34.166,54.979,34.096,68.211,5.558z"/>
			<path opacity="0.6706" fill="#008A00" enable-background="new    " d="M80.883,14.179c0.447,0.427,0.891,0.864,1.32,1.31
				C59.645,37.406,59.203,36.97,80.883,14.179z"/>
			<path fill="none" stroke="#000000" stroke-width="0.25" d="M80.883,14.179c0.447,0.427,0.891,0.864,1.32,1.31
				C59.645,37.406,59.203,36.97,80.883,14.179z"/>
			<path opacity="0.6706" fill="#008A00" enable-background="new    " d="M75.104,9.49c0.512,0.353,1.016,0.715,1.514,1.086
				C57.781,35.768,63.449,43.914,93.619,35.017c0.176,0.596,0.34,1.195,0.49,1.797C63.614,44.514,57.278,35.407,75.104,9.49z"/>
			<path fill="none" stroke="#000000" stroke-width="0.25" d="M75.104,9.49c0.512,0.353,1.016,0.715,1.514,1.086
				C57.781,35.768,63.449,43.914,93.619,35.017c0.176,0.596,0.34,1.195,0.49,1.797C63.614,44.514,57.278,35.407,75.104,9.49z"/>
			<path opacity="0.6706" fill="#008A00" enable-background="new    " d="M76.617,10.575c0.496,0.372,0.988,0.752,1.469,1.145
				C58.274,36.151,63.653,52.055,94.233,59.434c-0.146,0.604-0.305,1.204-0.473,1.801C63.496,52.654,57.781,35.768,76.617,10.575z"
				/>
			<path fill="none" stroke="#000000" stroke-width="0.25" d="M76.617,10.575c0.496,0.372,0.988,0.752,1.469,1.145
				C58.274,36.151,63.653,52.055,94.233,59.434c-0.146,0.604-0.305,1.204-0.473,1.801C63.496,52.654,57.781,35.768,76.617,10.575z"
				/>
			<path opacity="0.6706" fill="#008A00" enable-background="new    " d="M78.086,11.72c0.482,0.391,0.957,0.792,1.424,1.201
				c-20.764,23.63-19.75,46.282,3.043,67.963c-0.43,0.449-0.865,0.892-1.312,1.322C59.323,59.645,58.272,36.151,78.086,11.72z"/>
			<path fill="none" stroke="#000000" stroke-width="0.25" d="M78.086,11.72c0.482,0.391,0.957,0.792,1.424,1.201
				c-20.764,23.63-19.75,46.282,3.043,67.963c-0.43,0.449-0.865,0.892-1.312,1.322C59.323,59.645,58.272,36.151,78.086,11.72z"/>
			<path opacity="0.6706" fill="#008A00" enable-background="new    " d="M79.508,12.921c0.467,0.409,0.926,0.828,1.375,1.258
				C59.201,36.97,52.815,63.45,61.709,93.62c-0.596,0.177-1.191,0.34-1.795,0.491C52.215,63.613,58.746,36.551,79.508,12.921z"/>
			<path fill="none" stroke="#000000" stroke-width="0.25" d="M79.508,12.921c0.467,0.409,0.926,0.828,1.375,1.258
				C59.201,36.97,52.815,63.45,61.709,93.62c-0.596,0.177-1.191,0.34-1.795,0.491C52.215,63.613,58.746,36.551,79.508,12.921z"/>
			<path opacity="0.6706" fill="#008A00" enable-background="new    " d="M71.955,7.503c0.537,0.311,1.068,0.631,1.596,0.963
				c-16.789,26.6-28.876,55.188-36.254,85.764c-0.604-0.146-1.204-0.303-1.802-0.473C44.073,63.495,56.227,34.743,71.955,7.503z"/>
			<path fill="none" stroke="#000000" stroke-width="0.25" d="M71.955,7.503c0.537,0.311,1.068,0.631,1.596,0.963
				c-16.789,26.6-28.876,55.188-36.254,85.764c-0.604-0.146-1.204-0.303-1.802-0.473C44.073,63.495,56.227,34.743,71.955,7.503z"/>
			<path opacity="0.6706" fill="#008A00" enable-background="new    " d="M82.205,15.488c0.438,0.445,0.857,0.898,1.271,1.359
				C60.069,37.859,37.525,59.761,15.845,82.552c-0.45-0.429-0.891-0.865-1.323-1.312C37.082,59.323,59.645,37.406,82.205,15.488z"/>
			<path fill="none" stroke="#000000" stroke-width="0.25" d="M82.205,15.488c0.438,0.445,0.857,0.898,1.271,1.359
				C60.069,37.859,37.525,59.761,15.845,82.552c-0.45-0.429-0.891-0.865-1.323-1.312C37.082,59.323,59.645,37.406,82.205,15.488z"/>
			<path opacity="0.6706" fill="#008A00" enable-background="new    " d="M83.477,16.847c0.416,0.462,0.818,0.933,1.217,1.412
				C60.475,38.327,33.279,52.814,3.109,61.71c-0.175-0.595-0.339-1.193-0.491-1.796C33.115,52.216,60.069,37.859,83.477,16.847z"/>
			<path fill="none" stroke="#000000" stroke-width="0.25" d="M83.477,16.847c0.416,0.462,0.818,0.933,1.217,1.412
				C60.475,38.327,33.279,52.814,3.109,61.71c-0.175-0.595-0.339-1.193-0.491-1.796C33.115,52.216,60.069,37.859,83.477,16.847z"/>
			<path opacity="0.6706" fill="#008A00" enable-background="new    " d="M84.694,18.26c0.396,0.477,0.783,0.963,1.16,1.456
				C60.86,38.815,33.075,44.675,2.497,37.297c0.146-0.604,0.304-1.204,0.473-1.802C33.233,44.074,60.475,38.328,84.694,18.26z"/>
			<path fill="none" stroke="#000000" stroke-width="0.25" d="M84.694,18.26c0.396,0.477,0.783,0.963,1.16,1.456
				C60.86,38.815,33.075,44.675,2.497,37.297c0.146-0.604,0.304-1.204,0.473-1.802C33.233,44.074,60.475,38.328,84.694,18.26z"/>
			<path opacity="0.6706" fill="#008A00" enable-background="new    " d="M85.854,19.716c0.377,0.492,0.742,0.994,1.102,1.501
				c-25.729,18.099-49.987,16.308-72.779-5.371c0.43-0.45,0.866-0.892,1.312-1.324C37.404,37.082,60.86,38.814,85.854,19.716z"/>
			<path fill="none" stroke="#000000" stroke-width="0.25" d="M85.854,19.716c0.377,0.492,0.742,0.994,1.102,1.501
				c-25.729,18.099-49.987,16.308-72.779-5.371c0.43-0.45,0.866-0.892,1.312-1.324C37.404,37.082,60.86,38.814,85.854,19.716z"/>
			<path opacity="0.6706" fill="#008A00" enable-background="new    " d="M86.955,21.217c0.355,0.508,0.703,1.021,1.041,1.544
				C61.574,39.828,43.914,33.279,35.018,3.11c0.595-0.176,1.192-0.34,1.795-0.491C44.513,33.116,61.227,39.316,86.955,21.217z"/>
			<path fill="none" stroke="#000000" stroke-width="0.25" d="M86.955,21.217c0.355,0.508,0.703,1.021,1.041,1.544
				C61.574,39.828,43.914,33.279,35.018,3.11c0.595-0.176,1.192-0.34,1.795-0.491C44.513,33.116,61.227,39.316,86.955,21.217z"/>
			<path opacity="0.6706" fill="#008A00" enable-background="new    " d="M90.957,28.068c0.27,0.562,0.525,1.126,0.771,1.697
				C62.819,42.165,62.563,41.599,90.957,28.068z"/>
			<path fill="none" stroke="#000000" stroke-width="0.25" d="M90.957,28.068c0.27,0.562,0.525,1.126,0.771,1.697
				C62.819,42.165,62.563,41.599,90.957,28.068z"/>
			<path opacity="0.6706" fill="#008A00" enable-background="new    " d="M91.727,29.765c0.246,0.571,0.479,1.146,0.701,1.727
				C63.051,42.74,64.041,49.606,95.401,52.086c-0.051,0.618-0.111,1.235-0.184,1.852C63.983,50.222,62.819,42.165,91.727,29.765z"/>
			<path fill="none" stroke="#000000" stroke-width="0.25" d="M91.727,29.765c0.246,0.571,0.479,1.146,0.701,1.727
				C63.051,42.74,64.041,49.606,95.401,52.086c-0.051,0.618-0.111,1.235-0.184,1.852C63.983,50.222,62.819,42.165,91.727,29.765z"/>
			<path opacity="0.6706" fill="#008A00" enable-background="new    " d="M92.428,31.491c0.221,0.579,0.432,1.163,0.631,1.751
				c-29.797,10.081-31.736,24.037-5.82,41.863c-0.352,0.511-0.713,1.016-1.086,1.512C60.959,57.781,63.051,42.74,92.428,31.491z"/>
			<path fill="none" stroke="#000000" stroke-width="0.25" d="M92.428,31.491c0.221,0.579,0.432,1.163,0.631,1.751
				c-29.797,10.081-31.736,24.037-5.82,41.863c-0.352,0.511-0.713,1.016-1.086,1.512C60.959,57.781,63.051,42.74,92.428,31.491z"/>
			<path opacity="0.6706" fill="#008A00" enable-background="new    " d="M93.059,33.241c0.195,0.588,0.385,1.18,0.561,1.775
				c-30.17,8.897-38.49,27.546-24.959,55.94c-0.561,0.269-1.127,0.523-1.697,0.77C54.565,62.818,63.262,43.323,93.059,33.241z"/>
			<path fill="none" stroke="#000000" stroke-width="0.25" d="M93.059,33.241c0.195,0.588,0.385,1.18,0.561,1.775
				c-30.17,8.897-38.49,27.546-24.959,55.94c-0.561,0.269-1.127,0.523-1.697,0.77C54.565,62.818,63.262,43.323,93.059,33.241z"/>
			<path opacity="0.6706" fill="#008A00" enable-background="new    " d="M89.225,24.774c0.312,0.537,0.609,1.081,0.898,1.63
				C62.281,41.044,47.121,64.041,44.643,95.4c-0.618-0.049-1.235-0.109-1.854-0.184C46.506,63.982,61.985,40.502,89.225,24.774z"/>
			<path fill="none" stroke="#000000" stroke-width="0.25" d="M89.225,24.774c0.312,0.537,0.609,1.081,0.898,1.63
				C62.281,41.044,47.121,64.041,44.643,95.4c-0.618-0.049-1.235-0.109-1.854-0.184C46.506,63.982,61.985,40.502,89.225,24.774z"/>
			<path opacity="0.6706" fill="#008A00" enable-background="new    " d="M94.11,36.814c0.154,0.602,0.293,1.206,0.42,1.813
				c-30.775,6.49-55.079,22.694-72.906,48.609c-0.511-0.352-1.017-0.713-1.513-1.086C38.946,60.961,63.614,44.514,94.11,36.814z"/>
			<path fill="none" stroke="#000000" stroke-width="0.25" d="M94.11,36.814c0.154,0.602,0.293,1.206,0.42,1.813
				c-30.775,6.49-55.079,22.694-72.906,48.609c-0.511-0.352-1.017-0.713-1.513-1.086C38.946,60.961,63.614,44.514,94.11,36.814z"/>
			<path opacity="0.6706" fill="#008A00" enable-background="new    " d="M94.53,38.628c0.131,0.606,0.246,1.216,0.35,1.829
				C63.869,45.73,34.168,55.13,5.771,68.66c-0.267-0.561-0.523-1.125-0.769-1.694C33.909,54.564,63.754,45.118,94.53,38.628z"/>
			<path fill="none" stroke="#000000" stroke-width="0.25" d="M94.53,38.628c0.131,0.606,0.246,1.216,0.35,1.829
				C63.869,45.73,34.168,55.13,5.771,68.66c-0.267-0.561-0.523-1.125-0.769-1.694C33.909,54.564,63.754,45.118,94.53,38.628z"/>
			<path opacity="0.6706" fill="#008A00" enable-background="new    " d="M94.879,40.456c0.105,0.611,0.197,1.227,0.275,1.842
				c-31.193,4.044-62.469,4.826-93.826,2.346c0.048-0.619,0.109-1.236,0.183-1.854C32.745,46.506,63.869,45.729,94.879,40.456z"/>
			<path fill="none" stroke="#000000" stroke-width="0.25" d="M94.879,40.456c0.105,0.611,0.197,1.227,0.275,1.842
				c-31.193,4.044-62.469,4.826-93.826,2.346c0.048-0.619,0.109-1.236,0.183-1.854C32.745,46.506,63.869,45.729,94.879,40.456z"/>
			<path opacity="0.6706" fill="#008A00" enable-background="new    " d="M95.155,42.298c0.08,0.615,0.148,1.231,0.203,1.851
				C64.03,46.961,35.406,39.45,9.49,21.624c0.353-0.512,0.713-1.017,1.086-1.513C35.768,38.948,63.961,46.343,95.155,42.298z"/>
			<path fill="none" stroke="#000000" stroke-width="0.25" d="M95.155,42.298c0.08,0.615,0.148,1.231,0.203,1.851
				C64.03,46.961,35.406,39.45,9.49,21.624c0.353-0.512,0.713-1.017,1.086-1.513C35.768,38.948,63.961,46.343,95.155,42.298z"/>
			<path opacity="0.6706" fill="#008A00" enable-background="new    " d="M95.358,44.149c0.057,0.618,0.1,1.237,0.129,1.857
				C64.073,47.576,41.6,34.165,28.069,5.771c0.561-0.268,1.125-0.524,1.694-0.768C42.163,33.91,64.03,46.961,95.358,44.149z"/>
			<path fill="none" stroke="#000000" stroke-width="0.25" d="M95.358,44.149c0.057,0.618,0.1,1.237,0.129,1.857
				C64.073,47.576,41.6,34.165,28.069,5.771c0.561-0.268,1.125-0.524,1.694-0.768C42.163,33.91,64.03,46.961,95.358,44.149z"/>
			<path opacity="0.6706" fill="#008A00" enable-background="new    " d="M95.217,53.937c-0.074,0.617-0.158,1.231-0.258,1.846
				C63.897,50.838,63.983,50.222,95.217,53.937z"/>
			<path fill="none" stroke="#000000" stroke-width="0.25" d="M95.217,53.937c-0.074,0.617-0.158,1.231-0.258,1.846
				C63.897,50.838,63.983,50.222,95.217,53.937z"/>
			<path opacity="0.6706" fill="#008A00" enable-background="new    " d="M94.961,55.782c-0.1,0.612-0.209,1.225-0.328,1.832
				c-30.846-6.168-33.674,0.167-8.479,19.002c-0.371,0.498-0.752,0.988-1.145,1.472C60.578,58.271,63.897,50.838,94.961,55.782z"/>
			<path fill="none" stroke="#000000" stroke-width="0.25" d="M94.961,55.782c-0.1,0.612-0.209,1.225-0.328,1.832
				c-30.846-6.168-33.674,0.167-8.479,19.002c-0.371,0.498-0.752,0.988-1.145,1.472C60.578,58.271,63.897,50.838,94.961,55.782z"/>
			<path opacity="0.6706" fill="#008A00" enable-background="new    " d="M94.631,57.615c-0.12,0.609-0.257,1.215-0.399,1.818
				c-30.578-7.379-39.666,3.385-27.27,32.294c-0.568,0.245-1.145,0.478-1.725,0.7C53.989,63.053,63.787,51.447,94.631,57.615z"/>
			<path fill="none" stroke="#000000" stroke-width="0.25" d="M94.631,57.615c-0.12,0.609-0.257,1.215-0.399,1.818
				c-30.578-7.379-39.666,3.385-27.27,32.294c-0.568,0.245-1.145,0.478-1.725,0.7C53.989,63.053,63.787,51.447,94.631,57.615z"/>
			<path opacity="0.6706" fill="#008A00" enable-background="new    " d="M95.547,48.365c0,0.62-0.013,1.242-0.036,1.861
				c-31.434-1.241-49.004,13.756-52.72,44.99c-0.617-0.073-1.229-0.158-1.845-0.256C45.893,63.896,64.092,48.365,95.547,48.365z"/>
			<path fill="none" stroke="#000000" stroke-width="0.25" d="M95.547,48.365c0,0.62-0.013,1.242-0.036,1.861
				c-31.434-1.241-49.004,13.756-52.72,44.99c-0.617-0.073-1.229-0.158-1.845-0.256C45.893,63.896,64.092,48.365,95.547,48.365z"/>
			<path opacity="0.6706" fill="#008A00" enable-background="new    " d="M93.758,61.234c-0.17,0.598-0.352,1.191-0.545,1.78
				c-29.898-9.768-54.269-2.054-73.104,23.14c-0.498-0.373-0.986-0.754-1.47-1.145C38.456,60.579,63.496,52.654,93.758,61.234z"/>
			<path fill="none" stroke="#000000" stroke-width="0.25" d="M93.758,61.234c-0.17,0.598-0.352,1.191-0.545,1.78
				c-29.898-9.768-54.269-2.054-73.104,23.14c-0.498-0.373-0.986-0.754-1.47-1.145C38.456,60.579,63.496,52.654,93.758,61.234z"/>
			<path opacity="0.6706" fill="#008A00" enable-background="new    " d="M93.215,63.014c-0.192,0.592-0.397,1.178-0.612,1.76
				c-29.492-10.94-58.692-10.21-87.601,2.19c-0.244-0.57-0.478-1.146-0.699-1.727C33.675,53.99,63.315,53.247,93.215,63.014z"/>
			<path fill="none" stroke="#000000" stroke-width="0.25" d="M93.215,63.014c-0.192,0.592-0.397,1.178-0.612,1.76
				c-29.492-10.94-58.692-10.21-87.601,2.19c-0.244-0.57-0.478-1.146-0.699-1.727C33.675,53.99,63.315,53.247,93.215,63.014z"/>
			<path opacity="0.6706" fill="#008A00" enable-background="new    " d="M92.602,64.774c-0.217,0.581-0.443,1.159-0.684,1.731
				c-29.035-12.095-59.174-20-90.409-23.715c0.074-0.615,0.158-1.23,0.256-1.844C32.831,45.892,63.11,53.833,92.602,64.774z"/>
			<path fill="none" stroke="#000000" stroke-width="0.25" d="M92.602,64.774c-0.217,0.581-0.443,1.159-0.684,1.731
				c-29.035-12.095-59.174-20-90.409-23.715c0.074-0.615,0.158-1.23,0.256-1.844C32.831,45.892,63.11,53.833,92.602,64.774z"/>
			<path opacity="0.6706" fill="#008A00" enable-background="new    " d="M91.92,66.506c-0.236,0.573-0.486,1.143-0.75,1.705
				c-28.535-13.23-55.401-29.264-80.594-48.1c0.371-0.498,0.752-0.988,1.143-1.469C36.151,38.456,62.883,54.411,91.92,66.506z"/>
			<path fill="none" stroke="#000000" stroke-width="0.25" d="M91.92,66.506c-0.236,0.573-0.486,1.143-0.75,1.705
				c-28.535-13.23-55.401-29.264-80.594-48.1c0.371-0.498,0.752-0.988,1.143-1.469C36.151,38.456,62.883,54.411,91.92,66.506z"/>
			<path opacity="0.6706" fill="#008A00" enable-background="new    " d="M91.17,68.211c-0.262,0.562-0.531,1.12-0.814,1.674
				C62.364,55.538,42.165,33.91,29.765,5.004c0.572-0.245,1.146-0.479,1.728-0.7C42.739,33.678,62.633,54.98,91.17,68.211z"/>
			<path fill="none" stroke="#000000" stroke-width="0.25" d="M91.17,68.211c-0.262,0.562-0.531,1.12-0.814,1.674
				C62.364,55.538,42.165,33.91,29.765,5.004c0.572-0.245,1.146-0.479,1.728-0.7C42.739,33.678,62.633,54.98,91.17,68.211z"/>
			<path opacity="0.6706" fill="#008A00" enable-background="new    " d="M85.008,78.088c-0.393,0.48-0.791,0.955-1.201,1.422
				C60.178,58.745,60.578,58.271,85.008,78.088z"/>
			<path fill="none" stroke="#000000" stroke-width="0.25" d="M85.008,78.088c-0.393,0.48-0.791,0.955-1.201,1.422
				C60.178,58.745,60.578,58.271,85.008,78.088z"/>
			<path opacity="0.6706" fill="#008A00" enable-background="new    " d="M83.807,79.51c-0.41,0.466-0.828,0.925-1.256,1.374
				C59.758,59.203,53.989,63.053,65.239,92.428c-0.58,0.221-1.164,0.433-1.752,0.631C53.406,63.262,60.178,58.745,83.807,79.51z"/>
			<path fill="none" stroke="#000000" stroke-width="0.25" d="M83.807,79.51c-0.41,0.466-0.828,0.925-1.256,1.374
				C59.758,59.203,53.989,63.053,65.239,92.428c-0.58,0.221-1.164,0.433-1.752,0.631C53.406,63.262,60.178,58.745,83.807,79.51z"/>
			<path opacity="0.6706" fill="#008A00" enable-background="new    " d="M89.225,71.956c-0.311,0.537-0.631,1.068-0.961,1.595
				c-26.602-16.791-42.371-9.654-47.318,21.41c-0.613-0.099-1.225-0.207-1.832-0.329C45.281,63.787,61.985,56.229,89.225,71.956z"/>
			<path fill="none" stroke="#000000" stroke-width="0.25" d="M89.225,71.956c-0.311,0.537-0.631,1.068-0.961,1.595
				c-26.602-16.791-42.371-9.654-47.318,21.41c-0.613-0.099-1.225-0.207-1.832-0.329C45.281,63.787,61.985,56.229,89.225,71.956z"/>
			<path opacity="0.6706" fill="#008A00" enable-background="new    " d="M81.24,82.206c-0.441,0.435-0.896,0.857-1.357,1.271
				C58.869,60.07,38.458,60.579,18.644,85.009c-0.482-0.393-0.956-0.792-1.424-1.202C37.983,60.179,59.323,59.645,81.24,82.206z"/>
			<path fill="none" stroke="#000000" stroke-width="0.25" d="M81.24,82.206c-0.441,0.435-0.896,0.857-1.357,1.271
				C58.869,60.07,38.458,60.579,18.644,85.009c-0.482-0.393-0.956-0.792-1.424-1.202C37.983,60.179,59.323,59.645,81.24,82.206z"/>
			<path opacity="0.6706" fill="#008A00" enable-background="new    " d="M79.881,83.478c-0.464,0.414-0.935,0.82-1.409,1.217
				C58.4,60.475,33.676,53.99,4.303,65.239c-0.224-0.579-0.434-1.165-0.631-1.751C33.466,53.406,58.869,60.07,79.881,83.478z"/>
			<path fill="none" stroke="#000000" stroke-width="0.25" d="M79.881,83.478c-0.464,0.414-0.935,0.82-1.409,1.217
				C58.4,60.475,33.676,53.99,4.303,65.239c-0.224-0.579-0.434-1.165-0.631-1.751C33.466,53.406,58.869,60.07,79.881,83.478z"/>
			<path opacity="0.6706" fill="#008A00" enable-background="new    " d="M78.471,84.695c-0.479,0.396-0.967,0.781-1.457,1.158
				C57.912,60.861,32.831,45.892,1.767,40.947c0.098-0.613,0.208-1.225,0.329-1.833C32.942,45.281,58.399,60.475,78.471,84.695z"/>
			<path fill="none" stroke="#000000" stroke-width="0.25" d="M78.471,84.695c-0.479,0.396-0.967,0.781-1.457,1.158
				C57.912,60.861,32.831,45.892,1.767,40.947c0.098-0.613,0.208-1.225,0.329-1.833C32.942,45.281,58.399,60.475,78.471,84.695z"/>
			<path opacity="0.6706" fill="#008A00" enable-background="new    " d="M77.014,85.853c-0.494,0.377-0.994,0.745-1.502,1.102
				c-18.1-25.727-39.362-48.498-63.794-68.312c0.393-0.482,0.793-0.957,1.202-1.422C36.55,37.984,57.914,60.861,77.014,85.853z"/>
			<path fill="none" stroke="#000000" stroke-width="0.25" d="M77.014,85.853c-0.494,0.377-0.994,0.745-1.502,1.102
				c-18.1-25.727-39.362-48.498-63.794-68.312c0.393-0.482,0.793-0.957,1.202-1.422C36.55,37.984,57.914,60.861,77.014,85.853z"/>
			<path opacity="0.6706" fill="#008A00" enable-background="new    " d="M75.512,86.954c-0.51,0.357-1.021,0.704-1.543,1.041
				C56.901,61.573,42.739,33.678,31.49,4.303c0.58-0.224,1.164-0.434,1.752-0.631C43.323,33.467,57.414,61.228,75.512,86.954z"/>
			<path fill="none" stroke="#000000" stroke-width="0.25" d="M75.512,86.954c-0.51,0.357-1.021,0.704-1.543,1.041
				C56.901,61.573,42.739,33.678,31.49,4.303c0.58-0.224,1.164-0.434,1.752-0.631C43.323,33.467,57.414,61.228,75.512,86.954z"/>
			<path opacity="0.6706" fill="#008A00" enable-background="new    " d="M63.487,93.058c-0.588,0.198-1.18,0.387-1.775,0.562
				C52.815,63.45,53.406,63.262,63.487,93.058z"/>
			<path fill="none" stroke="#000000" stroke-width="0.25" d="M63.487,93.058c-0.588,0.198-1.18,0.387-1.775,0.562
				C52.815,63.45,53.406,63.262,63.487,93.058z"/>
			<path opacity="0.6706" fill="#008A00" enable-background="new    " d="M71.955,89.226c-0.537,0.31-1.08,0.609-1.631,0.897
				c-14.641-27.84-25.043-26.337-31.21,4.508c-0.61-0.12-1.215-0.255-1.818-0.401C44.675,63.654,56.227,61.985,71.955,89.226z"/>
			<path fill="none" stroke="#000000" stroke-width="0.25" d="M71.955,89.226c-0.537,0.31-1.08,0.609-1.631,0.897
				c-14.641-27.84-25.043-26.337-31.21,4.508c-0.61-0.12-1.215-0.255-1.818-0.401C44.675,63.654,56.227,61.985,71.955,89.226z"/>
			<path opacity="0.6706" fill="#008A00" enable-background="new    " d="M59.916,94.112c-0.604,0.151-1.209,0.291-1.812,0.421
				c-6.492-30.778-20.12-34.354-40.883-10.726c-0.468-0.409-0.925-0.828-1.374-1.255C37.526,59.762,52.215,63.613,59.916,94.112z"/>
			<path fill="none" stroke="#000000" stroke-width="0.25" d="M59.916,94.112c-0.604,0.151-1.209,0.291-1.812,0.421
				c-6.492-30.778-20.12-34.354-40.883-10.726c-0.468-0.409-0.925-0.828-1.374-1.255C37.526,59.762,52.215,63.613,59.916,94.112z"/>
			<path opacity="0.6706" fill="#008A00" enable-background="new    " d="M58.102,94.532c-0.607,0.127-1.217,0.244-1.828,0.349
				C51,63.87,33.466,53.406,3.671,63.488C3.47,62.9,3.284,62.306,3.109,61.711C33.279,52.814,51.61,63.754,58.102,94.532z"/>
			<path fill="none" stroke="#000000" stroke-width="0.25" d="M58.102,94.532c-0.607,0.127-1.217,0.244-1.828,0.349
				C51,63.87,33.466,53.406,3.671,63.488C3.47,62.9,3.284,62.306,3.109,61.711C33.279,52.814,51.61,63.754,58.102,94.532z"/>
			<path opacity="0.6706" fill="#008A00" enable-background="new    " d="M56.274,94.881c-0.613,0.104-1.229,0.194-1.844,0.274
				C50.385,63.962,32.941,45.281,2.096,39.114c0.121-0.606,0.255-1.215,0.4-1.817C33.075,44.675,51,63.87,56.274,94.881z"/>
			<path fill="none" stroke="#000000" stroke-width="0.25" d="M56.274,94.881c-0.613,0.104-1.229,0.194-1.844,0.274
				C50.385,63.962,32.941,45.281,2.096,39.114c0.121-0.606,0.255-1.215,0.4-1.817C33.075,44.675,51,63.87,56.274,94.881z"/>
			<path opacity="0.6706" fill="#008A00" enable-background="new    " d="M54.43,95.156c-0.615,0.079-1.232,0.148-1.852,0.202
				c-2.811-31.329-16.03-57.375-39.66-78.138c0.409-0.466,0.829-0.925,1.256-1.374C36.968,37.525,50.385,63.962,54.43,95.156z"/>
			<path fill="none" stroke="#000000" stroke-width="0.25" d="M54.43,95.156c-0.615,0.079-1.232,0.148-1.852,0.202
				c-2.811-31.329-16.03-57.375-39.66-78.138c0.409-0.466,0.829-0.925,1.256-1.374C36.968,37.525,50.385,63.962,54.43,95.156z"/>
			<path opacity="0.6706" fill="#008A00" enable-background="new    " d="M52.58,95.358c-0.619,0.056-1.236,0.099-1.855,0.132
				c-1.572-31.417-7.399-62.022-17.481-91.817c0.588-0.2,1.18-0.387,1.775-0.562C43.914,33.279,49.77,64.029,52.58,95.358z"/>
			<path fill="none" stroke="#000000" stroke-width="0.25" d="M52.58,95.358c-0.619,0.056-1.236,0.099-1.855,0.132
				c-1.572-31.417-7.399-62.022-17.481-91.817c0.588-0.2,1.18-0.387,1.775-0.562C43.914,33.279,49.77,64.029,52.58,95.358z"/>
			<path opacity="0.6706" fill="#008A00" enable-background="new    " d="M48.364,95.548c-0.619,0.001-1.24-0.014-1.859-0.038
				C47.742,64.079,48.364,64.093,48.364,95.548z"/>
			<path fill="none" stroke="#000000" stroke-width="0.25" d="M48.364,95.548c-0.619,0.001-1.24-0.014-1.859-0.038
				C47.742,64.079,48.364,64.093,48.364,95.548z"/>
			<path opacity="0.6706" fill="#008A00" enable-background="new    " d="M35.493,93.758c-0.597-0.168-1.191-0.351-1.781-0.543
				c9.769-29.9,6.787-31.229-8.938-3.988c-0.538-0.312-1.07-0.631-1.596-0.962C39.968,61.663,44.073,63.495,35.493,93.758z"/>
			<path fill="none" stroke="#000000" stroke-width="0.25" d="M35.493,93.758c-0.597-0.168-1.191-0.351-1.781-0.543
				c9.769-29.9,6.787-31.229-8.938-3.988c-0.538-0.312-1.07-0.631-1.596-0.962C39.968,61.663,44.073,63.495,35.493,93.758z"/>
			<path opacity="0.6706" fill="#008A00" enable-background="new    " d="M33.712,93.215c-0.589-0.192-1.176-0.396-1.758-0.613
				c10.939-29.49,2.788-36.373-24.452-20.646c-0.311-0.536-0.609-1.081-0.898-1.63C34.444,55.685,43.481,63.314,33.712,93.215z"/>
			<path fill="none" stroke="#000000" stroke-width="0.25" d="M33.712,93.215c-0.589-0.192-1.176-0.396-1.758-0.613
				c10.939-29.49,2.788-36.373-24.452-20.646c-0.311-0.536-0.609-1.081-0.898-1.63C34.444,55.685,43.481,63.314,33.712,93.215z"/>
			<path opacity="0.6706" fill="#008A00" enable-background="new    " d="M31.954,92.601c-0.582-0.215-1.16-0.443-1.732-0.682
				c12.097-29.037,2.414-43.556-29.041-43.556c0-0.621,0.013-1.242,0.037-1.86C32.649,47.743,42.895,63.111,31.954,92.601z"/>
			<path fill="none" stroke="#000000" stroke-width="0.25" d="M31.954,92.601c-0.582-0.215-1.16-0.443-1.732-0.682
				c12.097-29.037,2.414-43.556-29.041-43.556c0-0.621,0.013-1.242,0.037-1.86C32.649,47.743,42.895,63.111,31.954,92.601z"/>
			<path opacity="0.6706" fill="#008A00" enable-background="new    " d="M30.222,91.92c-0.573-0.238-1.143-0.488-1.703-0.749
				c13.229-28.538,6.225-50.67-21.017-66.397c0.312-0.538,0.631-1.068,0.962-1.593C35.065,39.969,42.319,62.883,30.222,91.92z"/>
			<path fill="none" stroke="#000000" stroke-width="0.25" d="M30.222,91.92c-0.573-0.238-1.143-0.488-1.703-0.749
				c13.229-28.538,6.225-50.67-21.017-66.397c0.312-0.538,0.631-1.068,0.962-1.593C35.065,39.969,42.319,62.883,30.222,91.92z"/>
			<path opacity="0.6706" fill="#008A00" enable-background="new    " d="M28.519,91.171c-0.564-0.263-1.121-0.533-1.676-0.817
				c14.349-27.991,13.656-55.609-2.069-82.851c0.537-0.312,1.08-0.61,1.63-0.898C41.044,34.446,41.747,62.633,28.519,91.171z"/>
			<path fill="none" stroke="#000000" stroke-width="0.25" d="M28.519,91.171c-0.564-0.263-1.121-0.533-1.676-0.817
				c14.349-27.991,13.656-55.609-2.069-82.851c0.537-0.312,1.08-0.61,1.63-0.898C41.044,34.446,41.747,62.633,28.519,91.171z"/>
			<path opacity="0.6706" fill="#008A00" enable-background="new    " d="M14.522,81.241c-0.433-0.444-0.855-0.897-1.271-1.36
				C36.659,58.868,37.082,59.323,14.522,81.241z"/>
			<path fill="none" stroke="#000000" stroke-width="0.25" d="M14.522,81.241c-0.433-0.444-0.855-0.897-1.271-1.36
				C36.659,58.868,37.082,59.323,14.522,81.241z"/>
			<path opacity="0.6706" fill="#008A00" enable-background="new    " d="M13.251,79.881c-0.416-0.461-0.821-0.932-1.218-1.41
				c24.221-20.07,21.081-26.255-9.417-18.556c-0.151-0.602-0.291-1.205-0.42-1.813C32.976,51.61,36.659,58.868,13.251,79.881z"/>
			<path fill="none" stroke="#000000" stroke-width="0.25" d="M13.251,79.881c-0.416-0.461-0.821-0.932-1.218-1.41
				c24.221-20.07,21.081-26.255-9.417-18.556c-0.151-0.602-0.291-1.205-0.42-1.813C32.976,51.61,36.659,58.868,13.251,79.881z"/>
			<path opacity="0.6706" fill="#008A00" enable-background="new    " d="M12.033,78.471c-0.396-0.479-0.782-0.963-1.158-1.457
				c24.992-19.101,22.356-32.938-7.905-41.52c0.171-0.597,0.351-1.189,0.543-1.78C33.413,43.481,36.254,58.4,12.033,78.471z"/>
			<path fill="none" stroke="#000000" stroke-width="0.25" d="M12.033,78.471c-0.396-0.479-0.782-0.963-1.158-1.457
				c24.992-19.101,22.356-32.938-7.905-41.52c0.171-0.597,0.351-1.189,0.543-1.78C33.413,43.481,36.254,58.4,12.033,78.471z"/>
			<path opacity="0.6706" fill="#008A00" enable-background="new    " d="M10.875,77.013c-0.378-0.492-0.745-0.993-1.103-1.5
				C35.5,57.412,37.404,37.082,15.487,14.522c0.443-0.432,0.898-0.856,1.359-1.271C37.859,36.66,35.867,57.913,10.875,77.013z"/>
			<path fill="none" stroke="#000000" stroke-width="0.25" d="M10.875,77.013c-0.378-0.492-0.745-0.993-1.103-1.5
				C35.5,57.412,37.404,37.082,15.487,14.522c0.443-0.432,0.898-0.856,1.359-1.271C37.859,36.66,35.867,57.913,10.875,77.013z"/>
			<path opacity="0.6706" fill="#008A00" enable-background="new    " d="M9.774,75.513c-0.355-0.508-0.703-1.023-1.041-1.545
				c26.422-17.07,35.78-40.853,28.08-71.351c0.602-0.152,1.207-0.293,1.813-0.421C45.118,32.976,35.5,57.413,9.774,75.513z"/>
			<path fill="none" stroke="#000000" stroke-width="0.25" d="M9.774,75.513c-0.355-0.508-0.703-1.023-1.041-1.545
				c26.422-17.07,35.78-40.853,28.08-71.351c0.602-0.152,1.207-0.293,1.813-0.421C45.118,32.976,35.5,57.413,9.774,75.513z"/>
			<path opacity="0.6706" fill="#008A00" enable-background="new    " d="M2.197,58.101c-0.129-0.606-0.244-1.217-0.349-1.828
				C32.86,50.999,32.976,51.61,2.197,58.101z"/>
			<path fill="none" stroke="#000000" stroke-width="0.25" d="M2.197,58.101c-0.129-0.606-0.244-1.217-0.349-1.828
				C32.86,50.999,32.976,51.61,2.197,58.101z"/>
			<path opacity="0.6706" fill="#008A00" enable-background="new    " d="M1.85,56.273c-0.104-0.612-0.197-1.227-0.276-1.841
				c31.194-4.044,31.841-10.952,1.939-20.718c0.193-0.591,0.396-1.177,0.613-1.759C33.618,42.895,32.86,50.999,1.85,56.273z"/>
			<path fill="none" stroke="#000000" stroke-width="0.25" d="M1.85,56.273c-0.104-0.612-0.197-1.227-0.276-1.841
				c31.194-4.044,31.841-10.952,1.939-20.718c0.193-0.591,0.396-1.177,0.613-1.759C33.618,42.895,32.86,50.999,1.85,56.273z"/>
			<path opacity="0.6706" fill="#008A00" enable-background="new    " d="M1.573,54.432c-0.079-0.616-0.147-1.233-0.204-1.852
				c31.33-2.812,36.489-15.921,15.479-39.331c0.464-0.414,0.934-0.819,1.41-1.216C38.327,36.255,32.768,50.388,1.573,54.432z"/>
			<path fill="none" stroke="#000000" stroke-width="0.25" d="M1.573,54.432c-0.079-0.616-0.147-1.233-0.204-1.852
				c31.33-2.812,36.489-15.921,15.479-39.331c0.464-0.414,0.934-0.819,1.41-1.216C38.327,36.255,32.768,50.388,1.573,54.432z"/>
			<path opacity="0.6706" fill="#008A00" enable-background="new    " d="M1.368,52.581c-0.055-0.618-0.098-1.239-0.129-1.858
				c31.416-1.572,43.879-17.747,37.387-48.524c0.608-0.129,1.217-0.245,1.829-0.349C45.729,32.86,32.698,49.77,1.368,52.581z"/>
			<path fill="none" stroke="#000000" stroke-width="0.25" d="M1.368,52.581c-0.055-0.618-0.098-1.239-0.129-1.858
				c31.416-1.572,43.879-17.747,37.387-48.524c0.608-0.129,1.217-0.245,1.829-0.349C45.729,32.86,32.698,49.77,1.368,52.581z"/>
			<path opacity="0.6706" fill="#008A00" enable-background="new    " d="M4.126,31.955c0.217-0.582,0.443-1.16,0.684-1.732
				C33.845,42.318,33.618,42.895,4.126,31.955z"/>
			<path fill="none" stroke="#000000" stroke-width="0.25" d="M4.126,31.955c0.217-0.582,0.443-1.16,0.684-1.732
				C33.845,42.318,33.618,42.895,4.126,31.955z"/>
			<path opacity="0.6706" fill="#008A00" enable-background="new    " d="M4.81,30.223c0.236-0.573,0.486-1.143,0.749-1.705
				c28.535,13.23,32.77,7.737,12.698-16.483c0.479-0.396,0.965-0.781,1.457-1.159C38.815,35.868,33.845,42.318,4.81,30.223z"/>
			<path fill="none" stroke="#000000" stroke-width="0.25" d="M4.81,30.223c0.236-0.573,0.486-1.143,0.749-1.705
				c28.535,13.23,32.77,7.737,12.698-16.483c0.479-0.396,0.965-0.781,1.457-1.159C38.815,35.868,33.845,42.318,4.81,30.223z"/>
			<path opacity="0.6706" fill="#008A00" enable-background="new    " d="M5.559,28.518c0.262-0.562,0.532-1.121,0.815-1.673
				c27.992,14.346,39.354,6.014,34.081-24.996c0.612-0.104,1.227-0.196,1.842-0.275C46.342,32.768,34.094,41.749,5.559,28.518z"/>
			<path fill="none" stroke="#000000" stroke-width="0.25" d="M5.559,28.518c0.262-0.562,0.532-1.121,0.815-1.673
				c27.992,14.346,39.354,6.014,34.081-24.996c0.612-0.104,1.227-0.196,1.842-0.275C46.342,32.768,34.094,41.749,5.559,28.518z"/>
			<path opacity="0.6706" fill="#008A00" enable-background="new    " d="M19.714,10.876c0.494-0.379,0.993-0.745,1.502-1.103
				C39.315,35.501,38.815,35.868,19.714,10.876z"/>
			<path fill="none" stroke="#000000" stroke-width="0.25" d="M19.714,10.876c0.494-0.379,0.993-0.745,1.502-1.103
				C39.315,35.501,38.815,35.868,19.714,10.876z"/>
			<path opacity="0.6706" fill="#008A00" enable-background="new    " d="M21.216,9.775c0.507-0.358,1.021-0.704,1.543-1.042
				c17.07,26.422,23.584,24.036,19.538-7.159c0.616-0.081,1.233-0.147,1.852-0.204C46.957,32.699,39.315,35.501,21.216,9.775z"/>
			<path fill="none" stroke="#000000" stroke-width="0.25" d="M21.216,9.775c0.507-0.358,1.021-0.704,1.543-1.042
				c17.07,26.422,23.584,24.036,19.538-7.159c0.616-0.081,1.233-0.147,1.852-0.204C46.957,32.699,39.315,35.501,21.216,9.775z"/>
			<path opacity="0.6706" fill="#008A00" enable-background="new    " d="M44.149,1.369c0.616-0.056,1.237-0.098,1.857-0.129
				C47.578,32.656,46.957,32.699,44.149,1.369z"/>
			<path fill="none" stroke="#000000" stroke-width="0.25" d="M44.149,1.369c0.616-0.056,1.237-0.098,1.857-0.129
				C47.578,32.656,46.957,32.699,44.149,1.369z"/>
		</g>
	</g>
</g>
</svg>
