<?xml version="1.0" encoding="utf-8"?>
<!-- Generator: Adobe Illustrator 15.0.0, SVG Export Plug-In . SVG Version: 6.00 Build 0)  -->
<!DOCTYPE svg PUBLIC "-//W3C//DTD SVG 1.1//EN" "http://www.w3.org/Graphics/SVG/1.1/DTD/svg11.dtd">
<svg version="1.1" id="Layer_1" xmlns="http://www.w3.org/2000/svg" xmlns:xlink="http://www.w3.org/1999/xlink" x="0px" y="0px"
	 width="168.1px" height="168.1px" viewBox="0 0 168.1 168.1" enable-background="new 0 0 168.1 168.1" xml:space="preserve">
<circle fill="#FEF8C3" stroke="#010101" stroke-width="0.45" cx="84.049" cy="84.049" r="84.049"/>
<g>
	<path fill="#108B44" stroke="#108B44" stroke-width="0.45" d="M84.049,0.408c13.266,0,26.342,3.156,38.148,9.206l-0.748,1.46
		c-11.574-5.932-24.395-9.025-37.4-9.025V0.408z"/>
	<path fill="#108B44" stroke="#108B44" stroke-width="0.45" d="M125.869,11.613c11.488,6.634,21.234,15.904,28.434,27.047
		l-1.377,0.891c-7.059-10.925-16.613-20.014-27.877-26.517L125.869,11.613z"/>
	<path fill="#108B44" stroke="#108B44" stroke-width="0.45" d="M156.484,42.229c6.633,11.488,10.438,24.391,11.1,37.641
		l-1.637,0.082c-0.65-12.99-4.381-25.64-10.885-36.902L156.484,42.229z"/>
	<path fill="#108B44" stroke="#108B44" stroke-width="0.45" d="M167.689,84.048c0,13.267-3.156,26.343-9.207,38.147l-1.459-0.748
		c5.932-11.574,9.025-24.393,9.025-37.399H167.689z"/>
	<path fill="#108B44" stroke="#108B44" stroke-width="0.45" d="M156.484,125.869c-6.633,11.488-15.904,21.234-27.047,28.434
		l-0.891-1.379c10.924-7.057,20.014-16.611,26.516-27.875L156.484,125.869z"/>
	<path fill="#108B44" stroke="#108B44" stroke-width="0.45" d="M125.869,156.482c-11.488,6.633-24.391,10.439-37.639,11.102
		l-0.082-1.639c12.988-0.648,25.637-4.379,36.9-10.883L125.869,156.482z"/>
	<path fill="#108B44" stroke="#108B44" stroke-width="0.45" d="M84.049,167.689c-13.266,0-26.342-3.156-38.146-9.207l0.748-1.459
		c11.574,5.932,24.393,9.025,37.398,9.025V167.689z"/>
	<path fill="#108B44" stroke="#108B44" stroke-width="0.45" d="M42.229,156.482c-11.488-6.633-21.234-15.902-28.434-27.047
		l1.379-0.889c7.057,10.924,16.611,20.014,27.875,26.516L42.229,156.482z"/>
	<path fill="#108B44" stroke="#108B44" stroke-width="0.45" d="M11.615,125.869C4.982,114.381,1.178,101.479,0.514,88.228
		l1.639-0.082c0.65,12.991,4.381,25.64,10.883,36.903L11.615,125.869z"/>
	<path fill="#108B44" stroke="#108B44" stroke-width="0.45" d="M0.41,84.048c0-13.266,3.154-26.341,9.205-38.147l1.459,0.748
		C5.143,58.223,2.049,71.043,2.049,84.048H0.41z"/>
	<path fill="#108B44" stroke="#108B44" stroke-width="0.45" d="M11.615,42.229C18.248,30.74,27.52,20.994,38.662,13.795l0.889,1.377
		C28.627,22.23,19.539,31.785,13.035,43.049L11.615,42.229z"/>
	<path fill="#108B44" stroke="#108B44" stroke-width="0.45" d="M42.229,11.613C53.719,4.98,66.619,1.176,79.869,0.513l0.082,1.638
		c-12.99,0.65-25.639,4.381-36.902,10.884L42.229,11.613z"/>
	
		<radialGradient id="SVGID_1_" cx="-39.877" cy="161.3047" r="1.001" gradientTransform="matrix(4.3094 0 0 -41.016 260.207 6638.7188)" gradientUnits="userSpaceOnUse">
		<stop  offset="0" style="stop-color:#108B44"/>
		<stop  offset="1" style="stop-color:#FFFFFF;stop-opacity:0.2"/>
	</radialGradient>
	<path fill="url(#SVGID_1_)" stroke="#010101" stroke-width="0.45" d="M87.285,2.112c1.078,0.042,2.154,0.106,3.23,0.191
		C86.205,56.801,85.127,56.736,87.285,2.112z"/>
	
		<radialGradient id="SVGID_2_" cx="-4.7944" cy="161.6602" r="1" gradientTransform="matrix(32.8669 0 0 -43.1444 271.6562 7000.6562)" gradientUnits="userSpaceOnUse">
		<stop  offset="0" style="stop-color:#108B44"/>
		<stop  offset="1" style="stop-color:#FFFFFF;stop-opacity:0.2"/>
	</radialGradient>
	<path fill="url(#SVGID_2_)" stroke="#010101" stroke-width="0.45" d="M103.285,4.336c1.049,0.254,2.094,0.527,3.131,0.822
		c-14.91,52.594-7.777,55.776,21.404,9.549c0.912,0.576,1.812,1.17,2.701,1.781C99.539,61.528,90.461,57.479,103.285,4.336z"/>
	
		<radialGradient id="SVGID_3_" cx="-2.0557" cy="163.333" r="0.999" gradientTransform="matrix(68.0795 0 0 -57.1042 264 9357.8438)" gradientUnits="userSpaceOnUse">
		<stop  offset="0" style="stop-color:#108B44"/>
		<stop  offset="1" style="stop-color:#FFFFFF;stop-opacity:0.2"/>
	</radialGradient>
	<path fill="url(#SVGID_3_)" stroke="#010101" stroke-width="0.45" d="M90.516,2.304c1.074,0.085,2.148,0.191,3.221,0.319
		c-6.459,54.283,14.506,68.703,62.889,43.26c0.504,0.954,0.986,1.919,1.451,2.893C108.725,72.291,86.205,56.801,90.516,2.304z"/>
	
		<radialGradient id="SVGID_4_" cx="-1.875" cy="165.1416" r="1.0015" gradientTransform="matrix(73.2762 0 0 -87.8917 266.6875 14561.1875)" gradientUnits="userSpaceOnUse">
		<stop  offset="0" style="stop-color:#108B44"/>
		<stop  offset="1" style="stop-color:#FFFFFF;stop-opacity:0.2"/>
	</radialGradient>
	<path fill="url(#SVGID_4_)" stroke="#010101" stroke-width="0.45" d="M93.736,2.623c1.07,0.127,2.139,0.275,3.205,0.445
		c-8.596,53.986,14.42,82.058,69.045,84.216c-0.043,1.078-0.107,2.154-0.191,3.23C111.297,86.204,87.277,56.906,93.736,2.623z"/>
	
		<radialGradient id="SVGID_5_" cx="-2.4741" cy="166.1855" r="1" gradientTransform="matrix(58.5154 0 0 -127.4522 268.875 21247.375)" gradientUnits="userSpaceOnUse">
		<stop  offset="0" style="stop-color:#108B44"/>
		<stop  offset="1" style="stop-color:#FFFFFF;stop-opacity:0.2"/>
	</radialGradient>
	<path fill="url(#SVGID_5_)" stroke="#010101" stroke-width="0.45" d="M96.941,3.068c1.064,0.17,2.127,0.359,3.184,0.571
		c-10.717,53.606,7.037,94.999,53.266,124.179c-0.576,0.912-1.17,1.812-1.781,2.701C106.57,99.539,88.346,57.055,96.941,3.068z"/>
	
		<radialGradient id="SVGID_6_" cx="-5.915" cy="166.5889" r="1" gradientTransform="matrix(27.1229 0 0 -154.4345 269.0938 25807.875)" gradientUnits="userSpaceOnUse">
		<stop  offset="0" style="stop-color:#108B44"/>
		<stop  offset="1" style="stop-color:#FFFFFF;stop-opacity:0.2"/>
	</radialGradient>
	<path fill="url(#SVGID_6_)" stroke="#010101" stroke-width="0.45" d="M100.125,3.64c1.059,0.212,2.111,0.444,3.16,0.696
		c-12.824,53.143-6.514,103.904,18.93,152.289c-0.955,0.502-1.918,0.986-2.893,1.449C95.807,108.725,89.408,57.246,100.125,3.64z"/>
	
		<radialGradient id="SVGID_7_" cx="-17.4355" cy="166.7002" r="1" gradientTransform="matrix(9.7012 0 0 -163.9362 251.5859 27412.25)" gradientUnits="userSpaceOnUse">
		<stop  offset="0" style="stop-color:#108B44"/>
		<stop  offset="1" style="stop-color:#FFFFFF;stop-opacity:0.2"/>
	</radialGradient>
	<path fill="url(#SVGID_7_)" stroke="#010101" stroke-width="0.45" d="M84.049,2.049c1.08,0,2.158,0.021,3.236,0.063
		c-2.158,54.624-4.314,109.249-6.471,163.872c-1.078-0.043-2.156-0.105-3.23-0.191C81.895,111.297,84.049,56.715,84.049,2.049z"/>
	
		<radialGradient id="SVGID_8_" cx="-1.9185" cy="166.5088" r="1" gradientTransform="matrix(71.9339 0 0 -148.2317 211.5625 24761.25)" gradientUnits="userSpaceOnUse">
		<stop  offset="0" style="stop-color:#108B44"/>
		<stop  offset="1" style="stop-color:#FFFFFF;stop-opacity:0.2"/>
	</radialGradient>
	<path fill="url(#SVGID_8_)" stroke="#010101" stroke-width="0.45" d="M106.416,5.158c1.037,0.294,2.07,0.608,3.096,0.943
		C92.537,58.066,69.459,107.162,40.279,153.389c-0.912-0.574-1.812-1.168-2.701-1.779C68.559,106.568,91.506,57.752,106.416,5.158z"
		/>
	
		<radialGradient id="SVGID_9_" cx="-1.1968" cy="165.958" r="1" gradientTransform="matrix(102.5436 0 0 -116.1128 184 19334.0625)" gradientUnits="userSpaceOnUse">
		<stop  offset="0" style="stop-color:#108B44"/>
		<stop  offset="1" style="stop-color:#FFFFFF;stop-opacity:0.2"/>
	</radialGradient>
	<path fill="url(#SVGID_9_)" stroke="#010101" stroke-width="0.45" d="M109.512,6.102c1.025,0.335,2.043,0.69,3.055,1.065
		C93.555,58.422,59.857,96.771,11.473,122.215c-0.502-0.955-0.984-1.92-1.449-2.893C59.375,95.807,92.537,58.066,109.512,6.102z"/>
	
		<radialGradient id="SVGID_10_" cx="-1.0332" cy="164.499" r="1" gradientTransform="matrix(113.4651 0 0 -73.7785 176.125 12180.625)" gradientUnits="userSpaceOnUse">
		<stop  offset="0" style="stop-color:#108B44"/>
		<stop  offset="1" style="stop-color:#FFFFFF;stop-opacity:0.2"/>
	</radialGradient>
	<path fill="url(#SVGID_10_)" stroke="#010101" stroke-width="0.45" d="M112.566,7.167c1.012,0.375,2.016,0.771,3.012,1.185
		C94.559,58.816,56.736,82.97,2.113,80.812c0.043-1.078,0.105-2.154,0.191-3.23C56.801,81.894,93.555,58.422,112.566,7.167z"/>
	
		<radialGradient id="SVGID_11_" cx="-1.1748" cy="162.3701" r="0.999" gradientTransform="matrix(103.8322 0 0 -48.1395 188.6875 7848.8125)" gradientUnits="userSpaceOnUse">
		<stop  offset="0" style="stop-color:#108B44"/>
		<stop  offset="1" style="stop-color:#FFFFFF;stop-opacity:0.2"/>
	</radialGradient>
	<path fill="url(#SVGID_11_)" stroke="#010101" stroke-width="0.45" d="M115.578,8.352c0.996,0.416,1.984,0.85,2.963,1.303
		C95.547,59.25,60.936,69.459,14.709,40.278c0.574-0.912,1.168-1.813,1.779-2.702C61.529,68.558,94.559,58.816,115.578,8.352z"/>
	
		<radialGradient id="SVGID_12_" cx="-1.8018" cy="160.7363" r="1" gradientTransform="matrix(75.5657 0 0 -38.0056 219.875 6137.5)" gradientUnits="userSpaceOnUse">
		<stop  offset="0" style="stop-color:#108B44"/>
		<stop  offset="1" style="stop-color:#FFFFFF;stop-opacity:0.2"/>
	</radialGradient>
	<path fill="url(#SVGID_12_)" stroke="#010101" stroke-width="0.45" d="M118.541,9.654c0.979,0.455,1.947,0.928,2.908,1.42
		c-24.934,48.649-50.121,48.781-75.566,0.397c0.955-0.502,1.92-0.985,2.895-1.449C72.291,59.373,95.547,59.25,118.541,9.654z"/>
	
		<radialGradient id="SVGID_13_" cx="-5.3022" cy="158.7568" r="1.001" gradientTransform="matrix(29.9943 0 0 -30.2872 286.875 4848.0625)" gradientUnits="userSpaceOnUse">
		<stop  offset="0" style="stop-color:#108B44"/>
		<stop  offset="1" style="stop-color:#FFFFFF;stop-opacity:0.2"/>
	</radialGradient>
	<path fill="url(#SVGID_13_)" stroke="#010101" stroke-width="0.45" d="M140.564,24.635c0.781,0.743,1.549,1.502,2.301,2.275
		C103.654,65.002,102.889,64.244,140.564,24.635z"/>
	
		<radialGradient id="SVGID_14_" cx="-2.9688" cy="162.834" r="1.001" gradientTransform="matrix(50.1759 0 0 -52.0837 287.375 8523.5312)" gradientUnits="userSpaceOnUse">
		<stop  offset="0" style="stop-color:#108B44"/>
		<stop  offset="1" style="stop-color:#FFFFFF;stop-opacity:0.2"/>
	</radialGradient>
	<path fill="url(#SVGID_14_)" stroke="#010101" stroke-width="0.45" d="M130.521,16.488c0.889,0.611,1.766,1.24,2.629,1.887
		c-32.734,43.782-22.885,57.941,29.549,42.477c0.307,1.035,0.59,2.076,0.855,3.121C110.551,77.356,99.539,61.528,130.521,16.488z"/>
	
		<radialGradient id="SVGID_15_" cx="-3.0195" cy="165.1484" r="1" gradientTransform="matrix(49.447 0 0 -88.0406 288.3125 14602.125)" gradientUnits="userSpaceOnUse">
		<stop  offset="0" style="stop-color:#108B44"/>
		<stop  offset="1" style="stop-color:#FFFFFF;stop-opacity:0.2"/>
	</radialGradient>
	<path fill="url(#SVGID_15_)" stroke="#010101" stroke-width="0.45" d="M133.15,18.375c0.865,0.646,1.715,1.309,2.553,1.988
		c-34.436,42.457-25.084,70.097,28.059,82.922c-0.254,1.049-0.527,2.092-0.822,3.131C110.346,91.503,100.416,62.157,133.15,18.375z"
		/>
	
		<radialGradient id="SVGID_16_" cx="-4.8896" cy="166.0898" r="1.001" gradientTransform="matrix(32.2851 0 0 -122.5008 285.1719 20427.875)" gradientUnits="userSpaceOnUse">
		<stop  offset="0" style="stop-color:#108B44"/>
		<stop  offset="1" style="stop-color:#FFFFFF;stop-opacity:0.2"/>
	</radialGradient>
	<path fill="url(#SVGID_16_)" stroke="#010101" stroke-width="0.45" d="M135.703,20.363c0.838,0.68,1.662,1.375,2.473,2.088
		c-36.084,41.064-34.322,80.436,5.287,118.113c-0.742,0.781-1.502,1.549-2.275,2.299C103.096,103.654,101.268,62.82,135.703,20.363z
		"/>
	
		<radialGradient id="SVGID_17_" cx="-3.6553" cy="166.4092" r="0.999" gradientTransform="matrix(41.8713 0 0 -141.1023 272.6875 23573.75)" gradientUnits="userSpaceOnUse">
		<stop  offset="0" style="stop-color:#108B44"/>
		<stop  offset="1" style="stop-color:#FFFFFF;stop-opacity:0.2"/>
	</radialGradient>
	<path fill="url(#SVGID_17_)" stroke="#010101" stroke-width="0.45" d="M138.176,22.451c0.811,0.711,1.607,1.439,2.389,2.184
		c-37.676,39.609-48.783,85.631-33.318,138.064c-1.035,0.305-2.076,0.59-3.121,0.854C90.74,110.551,102.092,63.516,138.176,22.451z"
		/>
	
		<radialGradient id="SVGID_18_" cx="-2.1309" cy="166.542" r="1" gradientTransform="matrix(66.1368 0 0 -150.7258 235.6875 25190.625)" gradientUnits="userSpaceOnUse">
		<stop  offset="0" style="stop-color:#108B44"/>
		<stop  offset="1" style="stop-color:#FFFFFF;stop-opacity:0.2"/>
	</radialGradient>
	<path fill="url(#SVGID_18_)" stroke="#010101" stroke-width="0.45" d="M125.049,13.034c0.936,0.54,1.857,1.097,2.771,1.673
		C98.639,60.935,77.637,110.619,64.812,163.76c-1.049-0.252-2.092-0.525-3.131-0.82C76.594,110.346,97.717,60.377,125.049,13.034z"
		/>
	
		<radialGradient id="SVGID_19_" cx="-0.9521" cy="165.9678" r="1" gradientTransform="matrix(119.8396 0 0 -116.552 199.25 19429.125)" gradientUnits="userSpaceOnUse">
		<stop  offset="0" style="stop-color:#108B44"/>
		<stop  offset="1" style="stop-color:#FFFFFF;stop-opacity:0.2"/>
	</radialGradient>
	<path fill="url(#SVGID_19_)" stroke="#010101" stroke-width="0.45" d="M142.865,26.91c0.752,0.773,1.488,1.562,2.209,2.365
		c-40.684,36.516-79.863,74.578-117.541,114.188c-0.781-0.744-1.547-1.502-2.299-2.277C64.443,103.094,103.654,65.002,142.865,26.91
		z"/>
	
		<radialGradient id="SVGID_20_" cx="-0.7197" cy="164.7158" r="0.999" gradientTransform="matrix(142.6424 0 0 -77.9692 178.5 12911)" gradientUnits="userSpaceOnUse">
		<stop  offset="0" style="stop-color:#108B44"/>
		<stop  offset="1" style="stop-color:#FFFFFF;stop-opacity:0.2"/>
	</radialGradient>
	<path fill="url(#SVGID_20_)" stroke="#010101" stroke-width="0.45" d="M145.074,29.275c0.721,0.803,1.424,1.62,2.113,2.451
		C105.096,66.607,57.832,91.78,5.398,107.244c-0.305-1.033-0.59-2.074-0.854-3.121C57.547,90.739,104.391,65.791,145.074,29.275z"/>
	
		<radialGradient id="SVGID_21_" cx="-0.7012" cy="160.8252" r="1" gradientTransform="matrix(144.8647 0 0 -38.4466 178.375 6234.125)" gradientUnits="userSpaceOnUse">
		<stop  offset="0" style="stop-color:#108B44"/>
		<stop  offset="1" style="stop-color:#FFFFFF;stop-opacity:0.2"/>
	</radialGradient>
	<path fill="url(#SVGID_21_)" stroke="#010101" stroke-width="0.45" d="M147.188,31.727c0.688,0.83,1.359,1.674,2.016,2.531
		C105.768,67.451,57.479,77.637,4.338,64.812c0.252-1.049,0.527-2.094,0.82-3.131C57.752,76.593,105.096,66.607,147.188,31.727z"/>
	
		<radialGradient id="SVGID_22_" cx="-0.8765" cy="159.5273" r="1.001" gradientTransform="matrix(126.4809 0 0 -32.8914 198.625 5288.7812)" gradientUnits="userSpaceOnUse">
		<stop  offset="0" style="stop-color:#108B44"/>
		<stop  offset="1" style="stop-color:#FFFFFF;stop-opacity:0.2"/>
	</radialGradient>
	<path fill="url(#SVGID_22_)" stroke="#010101" stroke-width="0.45" d="M149.203,34.258c0.654,0.857,1.293,1.727,1.912,2.609
		c-44.711,31.454-86.871,28.343-126.48-9.334c0.744-0.781,1.502-1.549,2.277-2.301C65.004,64.443,105.768,67.451,149.203,34.258z"/>
	
		<radialGradient id="SVGID_23_" cx="-1.3896" cy="162.7227" r="1.001" gradientTransform="matrix(92.0727 0 0 -51.0854 234.875 8342.8438)" gradientUnits="userSpaceOnUse">
		<stop  offset="0" style="stop-color:#108B44"/>
		<stop  offset="1" style="stop-color:#FFFFFF;stop-opacity:0.2"/>
	</radialGradient>
	<path fill="url(#SVGID_23_)" stroke="#010101" stroke-width="0.45" d="M151.115,36.867c0.621,0.883,1.225,1.777,1.811,2.684
		C107.008,69.216,76.316,57.832,60.854,5.398c1.033-0.307,2.074-0.591,3.121-0.855C77.357,57.547,106.404,68.321,151.115,36.867z"/>
	
		<radialGradient id="SVGID_24_" cx="-4.0771" cy="152.4385" r="1.001" gradientTransform="matrix(38.0165 0 0 -18.3735 295.4062 2858.7969)" gradientUnits="userSpaceOnUse">
		<stop  offset="0" style="stop-color:#108B44"/>
		<stop  offset="1" style="stop-color:#FFFFFF;stop-opacity:0.2"/>
	</radialGradient>
	<path fill="url(#SVGID_24_)" stroke="#010101" stroke-width="0.45" d="M158.076,48.775c0.463,0.975,0.908,1.957,1.334,2.948
		C109.17,73.273,108.725,72.291,158.076,48.775z"/>
	
		<radialGradient id="SVGID_25_" cx="-3.5845" cy="161.4756" r="1" gradientTransform="matrix(42.6069 0 0 -42.0107 297.1875 6856.4375)" gradientUnits="userSpaceOnUse">
		<stop  offset="0" style="stop-color:#108B44"/>
		<stop  offset="1" style="stop-color:#FFFFFF;stop-opacity:0.2"/>
	</radialGradient>
	<path fill="url(#SVGID_25_)" stroke="#010101" stroke-width="0.45" d="M159.41,51.724c0.424,0.991,0.83,1.991,1.217,2.999
		c-51.053,19.551-49.33,31.481,5.168,35.792c-0.086,1.074-0.191,2.148-0.32,3.219C111.191,87.276,109.17,73.273,159.41,51.724z"/>
	
		<radialGradient id="SVGID_26_" cx="-3.6123" cy="164.7373" r="1.0005" gradientTransform="matrix(42.3204 0 0 -78.4273 293.4062 13013.8125)" gradientUnits="userSpaceOnUse">
		<stop  offset="0" style="stop-color:#108B44"/>
		<stop  offset="1" style="stop-color:#FFFFFF;stop-opacity:0.2"/>
	</radialGradient>
	<path fill="url(#SVGID_26_)" stroke="#010101" stroke-width="0.45" d="M160.627,54.723c0.385,1.008,0.75,2.021,1.096,3.044
		c-51.781,17.521-55.152,41.772-10.113,72.753c-0.611,0.891-1.24,1.766-1.887,2.631C105.941,100.416,109.574,74.273,160.627,54.723z
		"/>
	
		<radialGradient id="SVGID_27_" cx="-2.7051" cy="165.5967" r="1.0005" gradientTransform="matrix(54.299 0 0 -101.6416 282.4062 16940.125)" gradientUnits="userSpaceOnUse">
		<stop  offset="0" style="stop-color:#108B44"/>
		<stop  offset="1" style="stop-color:#FFFFFF;stop-opacity:0.2"/>
	</radialGradient>
	<path fill="url(#SVGID_27_)" stroke="#010101" stroke-width="0.45" d="M161.723,57.767c0.346,1.022,0.672,2.05,0.977,3.085
		c-52.434,15.465-66.893,47.873-43.377,97.223c-0.975,0.465-1.957,0.908-2.949,1.334C94.824,109.168,109.941,75.287,161.723,57.767z
		"/>
	
		<radialGradient id="SVGID_28_" cx="-1.6152" cy="166.0967" r="0.999" gradientTransform="matrix(82.2626 0 0 -122.7447 248.375 20491.8125)" gradientUnits="userSpaceOnUse">
		<stop  offset="0" style="stop-color:#108B44"/>
		<stop  offset="1" style="stop-color:#FFFFFF;stop-opacity:0.2"/>
	</radialGradient>
	<path fill="url(#SVGID_28_)" stroke="#010101" stroke-width="0.45" d="M155.062,43.049c0.541,0.934,1.061,1.879,1.562,2.834
		c-48.383,25.443-74.73,65.414-79.041,119.91c-1.076-0.084-2.15-0.191-3.221-0.318C80.82,111.191,107.721,70.382,155.062,43.049z"/>
	
		<radialGradient id="SVGID_29_" cx="-0.8452" cy="165.1328" r="1" gradientTransform="matrix(129.3362 0 0 -87.6352 208.9375 14579.25)" gradientUnits="userSpaceOnUse">
		<stop  offset="0" style="stop-color:#108B44"/>
		<stop  offset="1" style="stop-color:#FFFFFF;stop-opacity:0.2"/>
	</radialGradient>
	<path fill="url(#SVGID_29_)" stroke="#010101" stroke-width="0.45" d="M163.555,63.973c0.264,1.047,0.508,2.098,0.729,3.153
		c-53.488,11.282-95.725,39.442-126.705,84.483c-0.889-0.611-1.766-1.24-2.631-1.887C67.682,105.939,110.551,77.356,163.555,63.973z
		"/>
	
		<radialGradient id="SVGID_30_" cx="-0.6143" cy="162.8467" r="1" gradientTransform="matrix(156.2 0 0 -52.1953 182.75 8593.0312)" gradientUnits="userSpaceOnUse">
		<stop  offset="0" style="stop-color:#108B44"/>
		<stop  offset="1" style="stop-color:#FFFFFF;stop-opacity:0.2"/>
	</radialGradient>
	<path fill="url(#SVGID_30_)" stroke="#010101" stroke-width="0.45" d="M164.283,67.126c0.223,1.056,0.426,2.115,0.605,3.179
		c-53.893,9.162-105.514,25.502-154.865,49.018c-0.465-0.975-0.908-1.957-1.334-2.949C58.93,94.824,110.795,78.408,164.283,67.126z"
		/>
	
		<radialGradient id="SVGID_31_" cx="-0.5669" cy="138.1885" r="1" gradientTransform="matrix(163.0641 0 0 -9.7357 176.25 1420.5312)" gradientUnits="userSpaceOnUse">
		<stop  offset="0" style="stop-color:#108B44"/>
		<stop  offset="1" style="stop-color:#FFFFFF;stop-opacity:0.2"/>
	</radialGradient>
	<path fill="url(#SVGID_31_)" stroke="#010101" stroke-width="0.45" d="M164.889,70.305c0.182,1.063,0.342,2.131,0.48,3.2
		c-54.213,7.028-108.568,8.389-163.064,4.077c0.086-1.074,0.191-2.148,0.318-3.22C56.908,80.82,110.996,79.467,164.889,70.305z"/>
	
		<radialGradient id="SVGID_32_" cx="-0.6665" cy="161.5996" r="1.0015" gradientTransform="matrix(149.2321 0 0 -42.7726 190.5 6968.4375)" gradientUnits="userSpaceOnUse">
		<stop  offset="0" style="stop-color:#108B44"/>
		<stop  offset="1" style="stop-color:#FFFFFF;stop-opacity:0.2"/>
	</radialGradient>
	<path fill="url(#SVGID_32_)" stroke="#010101" stroke-width="0.45" d="M165.369,73.505c0.139,1.069,0.256,2.143,0.352,3.217
		c-54.447,4.885-104.191-8.164-149.232-39.146c0.613-0.889,1.242-1.766,1.887-2.629C62.158,67.682,111.156,80.533,165.369,73.505z"
		/>
	
		<radialGradient id="SVGID_33_" cx="-0.9858" cy="164.3711" r="1.0015" gradientTransform="matrix(117.1703 0 0 -71.4767 222.75 11793.125)" gradientUnits="userSpaceOnUse">
		<stop  offset="0" style="stop-color:#108B44"/>
		<stop  offset="1" style="stop-color:#FFFFFF;stop-opacity:0.2"/>
	</radialGradient>
	<path fill="url(#SVGID_33_)" stroke="#010101" stroke-width="0.45" d="M165.721,76.722c0.098,1.075,0.172,2.151,0.227,3.229
		c-54.6,2.731-93.656-20.578-117.17-69.929c0.973-0.464,1.955-0.909,2.947-1.334C73.275,58.928,111.273,81.606,165.721,76.722z"/>
	
		<radialGradient id="SVGID_34_" cx="-3.7622" cy="128.4102" r="0.999" gradientTransform="matrix(40.8243 0 0 -7.3607 298.6562 1038.4414)" gradientUnits="userSpaceOnUse">
		<stop  offset="0" style="stop-color:#108B44"/>
		<stop  offset="1" style="stop-color:#FFFFFF;stop-opacity:0.2"/>
	</radialGradient>
	<path fill="url(#SVGID_34_)" stroke="#010101" stroke-width="0.45" d="M165.475,93.733c-0.127,1.073-0.275,2.142-0.445,3.206
		C111.043,88.345,111.191,87.276,165.475,93.733z"/>
	
		<radialGradient id="SVGID_35_" cx="-3.3389" cy="161.3623" r="1" gradientTransform="matrix(45.3308 0 0 -41.3378 293.6875 6785.375)" gradientUnits="userSpaceOnUse">
		<stop  offset="0" style="stop-color:#108B44"/>
		<stop  offset="1" style="stop-color:#FFFFFF;stop-opacity:0.2"/>
	</radialGradient>
	<path fill="url(#SVGID_35_)" stroke="#010101" stroke-width="0.45" d="M165.029,96.939c-0.17,1.066-0.359,2.127-0.572,3.186
		c-53.605-10.718-58.516,0.291-14.734,33.025c-0.645,0.863-1.309,1.715-1.988,2.553C105.277,101.268,111.043,88.345,165.029,96.939z
		"/>
	
		<radialGradient id="SVGID_36_" cx="-2.4531" cy="163.8369" r="1" gradientTransform="matrix(58.9199 0 0 -63.2897 279.5312 10498.1875)" gradientUnits="userSpaceOnUse">
		<stop  offset="0" style="stop-color:#108B44"/>
		<stop  offset="1" style="stop-color:#FFFFFF;stop-opacity:0.2"/>
	</radialGradient>
	<path fill="url(#SVGID_36_)" stroke="#010101" stroke-width="0.45" d="M164.457,100.125c-0.211,1.059-0.443,2.111-0.695,3.16
		c-53.143-12.825-68.938,5.883-47.389,56.123c-0.99,0.426-1.99,0.832-2.998,1.217C93.824,109.574,110.852,89.407,164.457,100.125z"
		/>
	
		<radialGradient id="SVGID_37_" cx="-1.3335" cy="164.876" r="1" gradientTransform="matrix(94.8913 0 0 -81.4259 245.1875 13549.875)" gradientUnits="userSpaceOnUse">
		<stop  offset="0" style="stop-color:#108B44"/>
		<stop  offset="1" style="stop-color:#FFFFFF;stop-opacity:0.2"/>
	</radialGradient>
	<path fill="url(#SVGID_37_)" stroke="#010101" stroke-width="0.45" d="M166.049,84.048c0,1.078-0.021,2.158-0.062,3.236
		c-54.625-2.158-85.166,23.907-91.623,78.19c-1.072-0.127-2.141-0.275-3.205-0.445C79.752,111.043,111.383,84.048,166.049,84.048z"
		/>
	
		<radialGradient id="SVGID_38_" cx="-0.8335" cy="162.4912" r="1.0015" gradientTransform="matrix(130.545 0 0 -49.1207 206.375 8106.875)" gradientUnits="userSpaceOnUse">
		<stop  offset="0" style="stop-color:#108B44"/>
		<stop  offset="1" style="stop-color:#FFFFFF;stop-opacity:0.2"/>
	</radialGradient>
	<path fill="url(#SVGID_38_)" stroke="#010101" stroke-width="0.45" d="M162.939,106.416c-0.293,1.037-0.609,2.068-0.943,3.094
		c-51.965-16.974-94.314-3.57-127.049,40.213c-0.863-0.646-1.715-1.309-2.553-1.988C66.832,105.277,110.346,91.503,162.939,106.416z
		"/>
	
		<radialGradient id="SVGID_39_" cx="-0.626" cy="152.7168" r="0.9985" gradientTransform="matrix(154.5234 0 0 -18.6957 181.5 2962.1406)" gradientUnits="userSpaceOnUse">
		<stop  offset="0" style="stop-color:#108B44"/>
		<stop  offset="1" style="stop-color:#FFFFFF;stop-opacity:0.2"/>
	</radialGradient>
	<path fill="url(#SVGID_39_)" stroke="#010101" stroke-width="0.45" d="M161.996,109.51c-0.336,1.025-0.689,2.045-1.064,3.057
		C109.676,93.554,58.93,94.824,8.689,116.373c-0.426-0.992-0.83-1.99-1.217-2.998C58.523,93.823,110.031,92.536,161.996,109.51z"/>
	
		<radialGradient id="SVGID_40_" cx="-0.5986" cy="161.8574" r="0.9985" gradientTransform="matrix(158.3073 0 0 -44.4203 176.625 7283.0938)" gradientUnits="userSpaceOnUse">
		<stop  offset="0" style="stop-color:#108B44"/>
		<stop  offset="1" style="stop-color:#FFFFFF;stop-opacity:0.2"/>
	</radialGradient>
	<path fill="url(#SVGID_40_)" stroke="#010101" stroke-width="0.45" d="M160.932,112.566c-0.377,1.012-0.771,2.016-1.186,3.012
		C109.281,94.558,56.908,80.82,2.623,74.362c0.127-1.071,0.275-2.14,0.445-3.205C57.057,79.752,109.676,93.554,160.932,112.566z"/>
	
		<radialGradient id="SVGID_41_" cx="-0.731" cy="165.0742" r="1" gradientTransform="matrix(141.3701 0 0 -86.1455 192.375 14295.9375)" gradientUnits="userSpaceOnUse">
		<stop  offset="0" style="stop-color:#108B44"/>
		<stop  offset="1" style="stop-color:#FFFFFF;stop-opacity:0.2"/>
	</radialGradient>
	<path fill="url(#SVGID_41_)" stroke="#010101" stroke-width="0.45" d="M159.746,115.578c-0.416,0.996-0.85,1.982-1.303,2.961
		C108.848,95.545,62.158,67.682,18.375,34.947c0.646-0.864,1.309-1.715,1.988-2.553C62.82,66.83,109.281,94.558,159.746,115.578z"/>
	
		<radialGradient id="SVGID_42_" cx="-1.1304" cy="165.9102" r="1" gradientTransform="matrix(106.7178 0 0 -113.9762 225.75 18974.375)" gradientUnits="userSpaceOnUse">
		<stop  offset="0" style="stop-color:#108B44"/>
		<stop  offset="1" style="stop-color:#FFFFFF;stop-opacity:0.2"/>
	</radialGradient>
	<path fill="url(#SVGID_42_)" stroke="#010101" stroke-width="0.45" d="M158.443,118.539c-0.455,0.979-0.928,1.949-1.42,2.908
		C108.375,96.516,73.275,58.928,51.725,8.688c0.992-0.425,1.992-0.831,2.998-1.217C74.273,58.523,108.848,95.545,158.443,118.539z"
		/>
	
		<radialGradient id="SVGID_43_" cx="-4.875" cy="157.8447" r="1" gradientTransform="matrix(32.3733 0 0 -27.6961 289.3438 4496.0156)" gradientUnits="userSpaceOnUse">
		<stop  offset="0" style="stop-color:#108B44"/>
		<stop  offset="1" style="stop-color:#FFFFFF;stop-opacity:0.2"/>
	</radialGradient>
	<path fill="url(#SVGID_43_)" stroke="#010101" stroke-width="0.45" d="M147.734,135.703c-0.68,0.838-1.375,1.662-2.088,2.473
		C104.582,102.092,105.277,101.268,147.734,135.703z"/>
	
		<radialGradient id="SVGID_44_" cx="-3.5503" cy="162.0537" r="1.0005" gradientTransform="matrix(42.9644 0 0 -45.7756 276.6875 7556.9375)" gradientUnits="userSpaceOnUse">
		<stop  offset="0" style="stop-color:#108B44"/>
		<stop  offset="1" style="stop-color:#FFFFFF;stop-opacity:0.2"/>
	</radialGradient>
	<path fill="url(#SVGID_44_)" stroke="#010101" stroke-width="0.45" d="M145.646,138.176c-0.711,0.811-1.439,1.605-2.184,2.389
		c-39.609-37.678-49.639-30.99-30.088,20.061c-1.008,0.387-2.021,0.752-3.045,1.098C92.811,109.939,104.582,102.092,145.646,138.176
		z"/>
	
		<radialGradient id="SVGID_45_" cx="-1.4976" cy="162.5742" r="0.999" gradientTransform="matrix(87.0906 0 0 -49.7927 242 8235.0938)" gradientUnits="userSpaceOnUse">
		<stop  offset="0" style="stop-color:#108B44"/>
		<stop  offset="1" style="stop-color:#FFFFFF;stop-opacity:0.2"/>
	</radialGradient>
	<path fill="url(#SVGID_45_)" stroke="#010101" stroke-width="0.45" d="M155.062,125.049c-0.539,0.934-1.096,1.857-1.672,2.77
		c-46.229-29.18-73.639-16.775-82.232,37.211c-1.066-0.17-2.127-0.361-3.186-0.572C78.691,110.852,107.721,97.715,155.062,125.049z"
		/>
	
		<radialGradient id="SVGID_46_" cx="-1.0645" cy="159.4268" r="1.0009" gradientTransform="matrix(111.2649 0 0 -32.5222 203.9375 5316.375)" gradientUnits="userSpaceOnUse">
		<stop  offset="0" style="stop-color:#108B44"/>
		<stop  offset="1" style="stop-color:#FFFFFF;stop-opacity:0.2"/>
	</radialGradient>
	<path fill="url(#SVGID_46_)" stroke="#010101" stroke-width="0.45" d="M141.188,142.863c-0.773,0.752-1.562,1.488-2.365,2.209
		c-36.516-40.682-71.99-39.795-106.428,2.662c-0.838-0.68-1.662-1.377-2.473-2.088C66.008,104.582,103.096,103.654,141.188,142.863z
		"/>
	
		<radialGradient id="SVGID_47_" cx="-0.814" cy="161.9082" r="1.001" gradientTransform="matrix(132.4469 0 0 -44.7676 180.375 7373.0312)" gradientUnits="userSpaceOnUse">
		<stop  offset="0" style="stop-color:#108B44"/>
		<stop  offset="1" style="stop-color:#FFFFFF;stop-opacity:0.2"/>
	</radialGradient>
	<path fill="url(#SVGID_47_)" stroke="#010101" stroke-width="0.45" d="M138.822,145.072c-0.803,0.721-1.619,1.426-2.451,2.113
		C101.49,105.094,58.523,93.823,7.473,113.375c-0.387-1.008-0.752-2.023-1.098-3.045C58.158,92.81,102.307,104.391,138.822,145.072z
		"/>
	
		<radialGradient id="SVGID_48_" cx="-0.8062" cy="164.8662" r="1.0015" gradientTransform="matrix(133.3027 0 0 -81.2295 177.125 13500.625)" gradientUnits="userSpaceOnUse">
		<stop  offset="0" style="stop-color:#108B44"/>
		<stop  offset="1" style="stop-color:#FFFFFF;stop-opacity:0.2"/>
	</radialGradient>
	<path fill="url(#SVGID_48_)" stroke="#010101" stroke-width="0.45" d="M136.371,147.186c-0.83,0.689-1.674,1.361-2.531,2.016
		C100.646,105.766,57.057,79.752,3.068,71.157c0.17-1.065,0.361-2.128,0.572-3.186C57.246,78.689,101.49,105.094,136.371,147.186z"
		/>
	
		<radialGradient id="SVGID_49_" cx="-1.0337" cy="166.0645" r="1.0015" gradientTransform="matrix(113.4758 0 0 -121.1938 194.375 20216.5625)" gradientUnits="userSpaceOnUse">
		<stop  offset="0" style="stop-color:#108B44"/>
		<stop  offset="1" style="stop-color:#FFFFFF;stop-opacity:0.2"/>
	</radialGradient>
	<path fill="url(#SVGID_49_)" stroke="#010101" stroke-width="0.45" d="M133.84,149.201c-0.857,0.656-1.727,1.293-2.609,1.914
		C99.775,106.404,62.82,66.83,20.363,32.395c0.68-0.838,1.377-1.662,2.088-2.473C63.518,66.006,100.646,105.766,133.84,149.201z"/>
	
		<radialGradient id="SVGID_50_" cx="-1.7744" cy="166.4863" r="1" gradientTransform="matrix(76.5069 0 0 -146.5503 228.75 24478.25)" gradientUnits="userSpaceOnUse">
		<stop  offset="0" style="stop-color:#108B44"/>
		<stop  offset="1" style="stop-color:#FFFFFF;stop-opacity:0.2"/>
	</radialGradient>
	<path fill="url(#SVGID_50_)" stroke="#010101" stroke-width="0.45" d="M131.23,151.115c-0.883,0.621-1.777,1.225-2.684,1.809
		c-29.664-45.916-54.273-94.4-73.824-145.452c1.008-0.386,2.023-0.752,3.045-1.098C75.289,58.156,99.775,106.404,131.23,151.115z"/>
	
		<radialGradient id="SVGID_51_" cx="-11.9629" cy="158.6777" r="0.9992" gradientTransform="matrix(13.9602 0 0 -30.0433 270.3672 4914.875)" gradientUnits="userSpaceOnUse">
		<stop  offset="0" style="stop-color:#108B44"/>
		<stop  offset="1" style="stop-color:#FFFFFF;stop-opacity:0.2"/>
	</radialGradient>
	<path fill="url(#SVGID_51_)" stroke="#010101" stroke-width="0.45" d="M110.33,161.723c-1.021,0.346-2.049,0.672-3.084,0.977
		C91.781,110.266,92.811,109.939,110.33,161.723z"/>
	
		<radialGradient id="SVGID_52_" cx="-2.3882" cy="161.5938" r="0.9995" gradientTransform="matrix(60.2366 0 0 -42.7272 238.8125 7047.5312)" gradientUnits="userSpaceOnUse">
		<stop  offset="0" style="stop-color:#108B44"/>
		<stop  offset="1" style="stop-color:#FFFFFF;stop-opacity:0.2"/>
	</radialGradient>
	<path fill="url(#SVGID_52_)" stroke="#010101" stroke-width="0.45" d="M125.049,155.062c-0.934,0.539-1.879,1.061-2.834,1.562
		c-25.443-48.385-43.523-45.773-54.242,7.832c-1.059-0.211-2.111-0.443-3.16-0.697C77.637,110.619,97.717,107.721,125.049,155.062z"
		/>
	
		<radialGradient id="SVGID_53_" cx="-1.772" cy="162.0156" r="0.9995" gradientTransform="matrix(76.5904 0 0 -45.5051 201.5625 7514.0625)" gradientUnits="userSpaceOnUse">
		<stop  offset="0" style="stop-color:#108B44"/>
		<stop  offset="1" style="stop-color:#FFFFFF;stop-opacity:0.2"/>
	</radialGradient>
	<path fill="url(#SVGID_53_)" stroke="#010101" stroke-width="0.45" d="M104.125,163.553c-1.047,0.264-2.098,0.508-3.152,0.73
		c-11.283-53.49-34.965-59.701-71.051-18.637c-0.811-0.713-1.605-1.439-2.389-2.184C65.211,103.854,90.74,110.551,104.125,163.553z"
		/>
	
		<radialGradient id="SVGID_54_" cx="-1.3208" cy="163.8047" r="0.999" gradientTransform="matrix(95.5732 0 0 -62.8458 179.375 10427.9375)" gradientUnits="userSpaceOnUse">
		<stop  offset="0" style="stop-color:#108B44"/>
		<stop  offset="1" style="stop-color:#FFFFFF;stop-opacity:0.2"/>
	</radialGradient>
	<path fill="url(#SVGID_54_)" stroke="#010101" stroke-width="0.45" d="M100.973,164.283c-1.057,0.223-2.115,0.424-3.18,0.605
		C88.631,110.996,58.158,92.81,6.375,110.33c-0.346-1.021-0.672-2.051-0.977-3.086C57.832,91.78,89.689,110.793,100.973,164.283z"/>
	
		<radialGradient id="SVGID_55_" cx="-1.3472" cy="165.5645" r="1" gradientTransform="matrix(94.1522 0 0 -100.556 177.625 16763.625)" gradientUnits="userSpaceOnUse">
		<stop  offset="0" style="stop-color:#108B44"/>
		<stop  offset="1" style="stop-color:#FFFFFF;stop-opacity:0.2"/>
	</radialGradient>
	<path fill="url(#SVGID_55_)" stroke="#010101" stroke-width="0.45" d="M97.793,164.889c-1.064,0.182-2.131,0.34-3.201,0.479
		c-7.027-54.213-37.346-86.678-90.951-97.396c0.211-1.058,0.443-2.111,0.697-3.159C57.479,77.637,88.631,110.996,97.793,164.889z"/>
	
		<radialGradient id="SVGID_56_" cx="-1.9121" cy="166.3643" r="1" gradientTransform="matrix(72.1409 0 0 -138.1873 196.4375 23086)" gradientUnits="userSpaceOnUse">
		<stop  offset="0" style="stop-color:#108B44"/>
		<stop  offset="1" style="stop-color:#FFFFFF;stop-opacity:0.2"/>
	</radialGradient>
	<path fill="url(#SVGID_56_)" stroke="#010101" stroke-width="0.45" d="M94.592,165.367c-1.068,0.139-2.141,0.258-3.217,0.354
		c-4.883-54.447-27.857-99.715-68.924-135.799c0.713-0.811,1.441-1.607,2.184-2.389C64.244,65.21,87.564,111.154,94.592,165.367z"/>
	
		<radialGradient id="SVGID_57_" cx="-4.6777" cy="166.6611" r="1.001" gradientTransform="matrix(33.6081 0 0 -160.5482 231.7812 26842.875)" gradientUnits="userSpaceOnUse">
		<stop  offset="0" style="stop-color:#108B44"/>
		<stop  offset="1" style="stop-color:#FFFFFF;stop-opacity:0.2"/>
	</radialGradient>
	<path fill="url(#SVGID_57_)" stroke="#010101" stroke-width="0.45" d="M91.375,165.721c-1.074,0.096-2.15,0.172-3.227,0.225
		C85.416,111.348,75.289,58.156,57.768,6.374c1.021-0.346,2.051-0.671,3.086-0.976C76.316,57.832,86.492,111.273,91.375,165.721z"/>
	
		<radialGradient id="SVGID_58_" cx="-53.2793" cy="161.3057" r="0.9985" gradientTransform="matrix(3.2354 0 0 -41.016 254.8145 6761.625)" gradientUnits="userSpaceOnUse">
		<stop  offset="0" style="stop-color:#108B44"/>
		<stop  offset="1" style="stop-color:#FFFFFF;stop-opacity:0.2"/>
	</radialGradient>
	<path fill="url(#SVGID_58_)" stroke="#010101" stroke-width="0.45" d="M84.049,166.049c-1.078,0-2.156-0.021-3.234-0.064
		C82.971,111.361,84.049,111.383,84.049,166.049z"/>
	
		<radialGradient id="SVGID_59_" cx="-5.5068" cy="161.4717" r="1" gradientTransform="matrix(28.9675 0 0 -41.9865 214.2812 6921.5625)" gradientUnits="userSpaceOnUse">
		<stop  offset="0" style="stop-color:#108B44"/>
		<stop  offset="1" style="stop-color:#FFFFFF;stop-opacity:0.2"/>
	</radialGradient>
	<path fill="url(#SVGID_59_)" stroke="#010101" stroke-width="0.45" d="M61.682,162.939c-1.037-0.295-2.068-0.609-3.094-0.943
		c16.975-51.965,11.795-54.275-15.539-6.934c-0.934-0.539-1.857-1.098-2.77-1.674C69.459,107.162,76.594,110.346,61.682,162.939z"/>
	
		<radialGradient id="SVGID_60_" cx="-2.7388" cy="162.8594" r="1.001" gradientTransform="matrix(53.7273 0 0 -52.3257 185.4688 8657.5938)" gradientUnits="userSpaceOnUse">
		<stop  offset="0" style="stop-color:#108B44"/>
		<stop  offset="1" style="stop-color:#FFFFFF;stop-opacity:0.2"/>
	</radialGradient>
	<path fill="url(#SVGID_60_)" stroke="#010101" stroke-width="0.45" d="M58.588,161.996c-1.025-0.336-2.045-0.691-3.057-1.066
		c19.012-51.254,4.848-63.215-42.496-35.881c-0.539-0.934-1.061-1.879-1.562-2.834C59.857,96.771,75.562,110.031,58.588,161.996z"/>
	
		<radialGradient id="SVGID_61_" cx="-2.3594" cy="164.8174" r="1" gradientTransform="matrix(60.8452 0 0 -80.1168 176.0625 13325.4375)" gradientUnits="userSpaceOnUse">
		<stop  offset="0" style="stop-color:#108B44"/>
		<stop  offset="1" style="stop-color:#FFFFFF;stop-opacity:0.2"/>
	</radialGradient>
	<path fill="url(#SVGID_61_)" stroke="#010101" stroke-width="0.45" d="M55.531,160.93c-1.012-0.375-2.016-0.77-3.012-1.186
		c21.02-50.463,4.197-75.696-50.471-75.696c0-1.078,0.021-2.156,0.064-3.235C56.736,82.97,74.543,109.676,55.531,160.93z"/>
	
		<radialGradient id="SVGID_62_" cx="-3.0259" cy="166.0293" r="1" gradientTransform="matrix(49.3401 0 0 -119.4663 187.0312 19935)" gradientUnits="userSpaceOnUse">
		<stop  offset="0" style="stop-color:#108B44"/>
		<stop  offset="1" style="stop-color:#FFFFFF;stop-opacity:0.2"/>
	</radialGradient>
	<path fill="url(#SVGID_62_)" stroke="#010101" stroke-width="0.45" d="M52.52,159.744c-0.994-0.414-1.982-0.848-2.961-1.303
		c22.994-49.596,10.82-88.06-36.523-115.393c0.539-0.935,1.098-1.858,1.674-2.771C60.936,69.459,73.539,109.281,52.52,159.744z"/>
	
		<radialGradient id="SVGID_63_" cx="-7.1045" cy="166.4922" r="1" gradientTransform="matrix(22.8822 0 0 -146.9698 217.0469 24554.25)" gradientUnits="userSpaceOnUse">
		<stop  offset="0" style="stop-color:#108B44"/>
		<stop  offset="1" style="stop-color:#FFFFFF;stop-opacity:0.2"/>
	</radialGradient>
	<path fill="url(#SVGID_63_)" stroke="#010101" stroke-width="0.45" d="M49.559,158.441c-0.979-0.453-1.949-0.926-2.908-1.418
		c24.932-48.65,23.732-96.646-3.602-143.989c0.936-0.54,1.879-1.06,2.834-1.562C71.328,59.855,72.553,108.846,49.559,158.441z"/>
	
		<radialGradient id="SVGID_64_" cx="-5.1001" cy="43.7295" r="1" gradientTransform="matrix(31.0744 0 0 -2.3651 197.0312 243.4316)" gradientUnits="userSpaceOnUse">
		<stop  offset="0" style="stop-color:#108B44"/>
		<stop  offset="1" style="stop-color:#FFFFFF;stop-opacity:0.2"/>
	</radialGradient>
	<path fill="url(#SVGID_64_)" stroke="#010101" stroke-width="0.45" d="M25.234,141.186c-0.752-0.773-1.488-1.561-2.209-2.363
		C63.707,102.307,64.443,103.094,25.234,141.186z"/>
	
		<radialGradient id="SVGID_65_" cx="-3.3628" cy="161.4473" r="1" gradientTransform="matrix(45.0437 0 0 -41.8445 177.8125 6873.5938)" gradientUnits="userSpaceOnUse">
		<stop  offset="0" style="stop-color:#108B44"/>
		<stop  offset="1" style="stop-color:#FFFFFF;stop-opacity:0.2"/>
	</radialGradient>
	<path fill="url(#SVGID_65_)" stroke="#010101" stroke-width="0.45" d="M23.025,138.822c-0.721-0.805-1.426-1.621-2.113-2.451
		c42.092-34.881,36.635-45.632-16.367-32.248c-0.264-1.045-0.508-2.096-0.73-3.152C57.305,89.688,63.707,102.307,23.025,138.822z"/>
	
		<radialGradient id="SVGID_66_" cx="-3.4536" cy="164.7061" r="1" gradientTransform="matrix(44.0081 0 0 -77.7844 179.1562 12909.0625)" gradientUnits="userSpaceOnUse">
		<stop  offset="0" style="stop-color:#108B44"/>
		<stop  offset="1" style="stop-color:#FFFFFF;stop-opacity:0.2"/>
	</radialGradient>
	<path fill="url(#SVGID_66_)" stroke="#010101" stroke-width="0.45" d="M20.912,136.371c-0.689-0.83-1.361-1.676-2.016-2.531
		c43.436-33.195,38.855-57.247-13.738-72.158c0.295-1.038,0.609-2.07,0.945-3.096C58.066,75.561,63.004,101.49,20.912,136.371z"/>
	
		<radialGradient id="SVGID_67_" cx="-4.1631" cy="165.8369" r="0.999" gradientTransform="matrix(37.31 0 0 -110.8145 190.9688 18455.625)" gradientUnits="userSpaceOnUse">
		<stop  offset="0" style="stop-color:#108B44"/>
		<stop  offset="1" style="stop-color:#FFFFFF;stop-opacity:0.2"/>
	</radialGradient>
	<path fill="url(#SVGID_67_)" stroke="#010101" stroke-width="0.45" d="M18.896,133.84c-0.654-0.857-1.293-1.729-1.914-2.609
		c44.711-31.455,48.021-66.787,9.93-105.998c0.773-0.752,1.562-1.488,2.365-2.208C65.791,63.707,62.332,100.645,18.896,133.84z"/>
	
		<radialGradient id="SVGID_68_" cx="-2.6528" cy="166.1836" r="0.999" gradientTransform="matrix(55.1656 0 0 -127.4158 189.1875 21241.9375)" gradientUnits="userSpaceOnUse">
		<stop  offset="0" style="stop-color:#108B44"/>
		<stop  offset="1" style="stop-color:#FFFFFF;stop-opacity:0.2"/>
	</radialGradient>
	<path fill="url(#SVGID_68_)" stroke="#010101" stroke-width="0.45" d="M16.982,131.23c-0.621-0.883-1.225-1.777-1.809-2.684
		c45.916-29.666,62.184-71,48.801-124.004c1.045-0.264,2.096-0.507,3.152-0.729C78.408,57.303,61.693,99.775,16.982,131.23z"/>
	
		<radialGradient id="SVGID_69_" cx="-3.7886" cy="136.8994" r="1" gradientTransform="matrix(40.5719 0 0 -9.3384 177.2188 1374.7188)" gradientUnits="userSpaceOnUse">
		<stop  offset="0" style="stop-color:#108B44"/>
		<stop  offset="1" style="stop-color:#FFFFFF;stop-opacity:0.2"/>
	</radialGradient>
	<path fill="url(#SVGID_69_)" stroke="#010101" stroke-width="0.45" d="M3.814,100.971c-0.223-1.055-0.424-2.115-0.605-3.178
		C57.104,88.63,57.305,89.688,3.814,100.971z"/>
	
		<radialGradient id="SVGID_70_" cx="-3.6514" cy="161.5166" r="1" gradientTransform="matrix(41.9139 0 0 -42.2613 176.7188 6902.5938)" gradientUnits="userSpaceOnUse">
		<stop  offset="0" style="stop-color:#108B44"/>
		<stop  offset="1" style="stop-color:#FFFFFF;stop-opacity:0.2"/>
	</radialGradient>
	<path fill="url(#SVGID_70_)" stroke="#010101" stroke-width="0.45" d="M3.209,97.793c-0.18-1.064-0.34-2.131-0.479-3.202
		c54.213-7.027,55.336-19.03,3.373-36.005c0.334-1.025,0.689-2.044,1.064-3.055C58.422,74.543,57.104,88.63,3.209,97.793z"/>
	
		<radialGradient id="SVGID_71_" cx="-2.9912" cy="164.4951" r="0.999" gradientTransform="matrix(49.8345 0 0 -73.681 176.375 12177.875)" gradientUnits="userSpaceOnUse">
		<stop  offset="0" style="stop-color:#108B44"/>
		<stop  offset="1" style="stop-color:#FFFFFF;stop-opacity:0.2"/>
	</radialGradient>
	<path fill="url(#SVGID_71_)" stroke="#010101" stroke-width="0.45" d="M2.73,94.591c-0.139-1.068-0.256-2.143-0.354-3.217
		c54.449-4.883,63.414-27.667,26.9-68.35c0.803-0.721,1.619-1.425,2.449-2.114C66.609,63.002,56.943,87.563,2.73,94.591z"/>
	
		<radialGradient id="SVGID_72_" cx="-1.9805" cy="165.1533" r="1" gradientTransform="matrix(70.1335 0 0 -88.1665 176.125 14608.25)" gradientUnits="userSpaceOnUse">
		<stop  offset="0" style="stop-color:#108B44"/>
		<stop  offset="1" style="stop-color:#FFFFFF;stop-opacity:0.2"/>
	</radialGradient>
	<path fill="url(#SVGID_72_)" stroke="#010101" stroke-width="0.45" d="M2.377,91.374c-0.096-1.074-0.172-2.15-0.225-3.229
		c54.598-2.73,76.256-30.843,64.975-84.332c1.055-0.223,2.115-0.425,3.18-0.604C79.469,57.102,56.826,86.491,2.377,91.374z"/>
	
		<radialGradient id="SVGID_73_" cx="-3.9917" cy="150.6748" r="1" gradientTransform="matrix(38.7392 0 0 -16.555 181.1562 2555.2188)" gradientUnits="userSpaceOnUse">
		<stop  offset="0" style="stop-color:#108B44"/>
		<stop  offset="1" style="stop-color:#FFFFFF;stop-opacity:0.2"/>
	</radialGradient>
	<path fill="url(#SVGID_73_)" stroke="#010101" stroke-width="0.45" d="M7.168,55.531c0.375-1.012,0.77-2.016,1.186-3.012
		C58.816,73.539,58.422,74.543,7.168,55.531z"/>
	
		<radialGradient id="SVGID_74_" cx="-3.311" cy="161.7783" r="1" gradientTransform="matrix(45.6616 0 0 -43.906 182.3438 7143.9062)" gradientUnits="userSpaceOnUse">
		<stop  offset="0" style="stop-color:#108B44"/>
		<stop  offset="1" style="stop-color:#FFFFFF;stop-opacity:0.2"/>
	</radialGradient>
	<path fill="url(#SVGID_74_)" stroke="#010101" stroke-width="0.45" d="M8.354,52.52c0.414-0.996,0.85-1.983,1.303-2.963
		c49.596,22.994,56.953,13.445,22.07-28.646c0.832-0.688,1.676-1.359,2.533-2.015C67.453,62.33,58.816,73.539,8.354,52.52z"/>
	
		<radialGradient id="SVGID_75_" cx="-2.1704" cy="162.8643" r="1" gradientTransform="matrix(65.1588 0 0 -52.3667 183.625 8557.625)" gradientUnits="userSpaceOnUse">
		<stop  offset="0" style="stop-color:#108B44"/>
		<stop  offset="1" style="stop-color:#FFFFFF;stop-opacity:0.2"/>
	</radialGradient>
	<path fill="url(#SVGID_75_)" stroke="#010101" stroke-width="0.45" d="M9.656,49.557c0.453-0.979,0.926-1.947,1.418-2.908
		c48.65,24.934,68.395,10.453,59.232-43.439c1.062-0.182,2.129-0.342,3.199-0.48C80.535,56.941,59.252,72.551,9.656,49.557z"/>
	
		<radialGradient id="SVGID_76_" cx="-6.3062" cy="159.8232" r="1" gradientTransform="matrix(25.5651 0 0 -34.0119 208.2656 5469.875)" gradientUnits="userSpaceOnUse">
		<stop  offset="0" style="stop-color:#108B44"/>
		<stop  offset="1" style="stop-color:#FFFFFF;stop-opacity:0.2"/>
	</radialGradient>
	<path fill="url(#SVGID_76_)" stroke="#010101" stroke-width="0.45" d="M34.26,18.896c0.855-0.655,1.727-1.294,2.609-1.914
		C68.322,61.693,67.453,62.33,34.26,18.896z"/>
	
		<radialGradient id="SVGID_77_" cx="-3.8657" cy="161.9199" r="0.9991" gradientTransform="matrix(39.8545 0 0 -44.8459 210.875 7286.25)" gradientUnits="userSpaceOnUse">
		<stop  offset="0" style="stop-color:#108B44"/>
		<stop  offset="1" style="stop-color:#FFFFFF;stop-opacity:0.2"/>
	</radialGradient>
	<path fill="url(#SVGID_77_)" stroke="#010101" stroke-width="0.45" d="M36.869,16.981c0.881-0.62,1.775-1.224,2.682-1.81
		C69.217,61.09,80.535,56.941,73.506,2.729c1.07-0.139,2.143-0.256,3.217-0.352C81.607,56.824,68.322,61.693,36.869,16.981z"/>
	
		<radialGradient id="SVGID_78_" cx="-36.5342" cy="161.3027" r="1.001" gradientTransform="matrix(4.6983 0 0 -41.0052 250.7227 6636.9375)" gradientUnits="userSpaceOnUse">
		<stop  offset="0" style="stop-color:#108B44"/>
		<stop  offset="1" style="stop-color:#FFFFFF;stop-opacity:0.2"/>
	</radialGradient>
	<path fill="url(#SVGID_78_)" stroke="#010101" stroke-width="0.45" d="M76.723,2.377c1.074-0.098,2.15-0.172,3.229-0.227
		C82.684,56.749,81.607,56.824,76.723,2.377z"/>
</g>
</svg>
